/* XPM */
static char *player_left1_resized[] = {
/* columns rows colors chars-per-pixel */
"64 64 237 2 ",
"   c #2A282B",
".  c #4A3A34",
"X  c #5D453E",
"o  c #323A45",
"O  c #57626D",
"+  c #605D63",
"@  c #B50B69",
"#  c #B92871",
"$  c #C6247C",
"%  c #885C5A",
"&  c #8D6955",
"*  c #B1774E",
"=  c #B47756",
"-  c #AF7153",
";  c #917165",
":  c #B97965",
">  c #A97269",
",  c #CA7572",
"<  c #D05C78",
"1  c #B58247",
"2  c #BB8649",
"3  c #BD835B",
"4  c #BA945A",
"5  c #B38E6B",
"6  c #BCA376",
"7  c #BDA06E",
"8  c #98857D",
"9  c #C28D4B",
"0  c #CF9B46",
"q  c #C9954A",
"w  c #CE9B4A",
"e  c #C69349",
"r  c #D19E4B",
"t  c #D09C47",
"y  c #C18C55",
"u  c #C69554",
"i  c #CC9B54",
"p  c #CB9D5B",
"a  c #C7955B",
"s  c #D09E51",
"d  c #D3A14E",
"f  c #CFA05B",
"g  c #D5A454",
"h  c #D3A45B",
"j  c #D7A859",
"k  c #D9AA5C",
"l  c #C3866A",
"z  c #C68967",
"x  c #D58C68",
"c  c #C99865",
"v  c #D49A6A",
"b  c #C88D74",
"n  c #CA9677",
"m  c #D69A79",
"M  c #D5887A",
"N  c #E89B6F",
"B  c #E4996E",
"V  c #E49A77",
"C  c #CEA262",
"Z  c #CCA56D",
"A  c #D2A563",
"S  c #D5A965",
"D  c #DBAE62",
"F  c #D5AB6B",
"G  c #D6A86A",
"H  c #DEB165",
"J  c #DDB36C",
"K  c #CAA876",
"L  c #D9A676",
"P  c #DDB572",
"I  c #DAB47B",
"U  c #E1B66B",
"Y  c #E2B86E",
"T  c #E5A67B",
"R  c #E4BC74",
"E  c #E4BD7A",
"W  c #E0B772",
"Q  c #E7C07A",
"!  c #E9C37C",
"~  c #E9C278",
"^  c #4F6F8F",
"/  c #1F6093",
"(  c #BE2E82",
")  c #CB3A85",
"_  c #E43F91",
"`  c #B4729D",
"'  c #B478AF",
"]  c #995292",
"[  c #CD468D",
"{  c #D5488B",
"}  c #C75C97",
"|  c #D35896",
" . c #D6538A",
".. c #E5569B",
"X. c #E64394",
"o. c #DB7288",
"O. c #E77598",
"+. c #E56A91",
"@. c #D96AA3",
"#. c #C977A9",
"$. c #D472A9",
"%. c #E975AC",
"&. c #EB7DB2",
"*. c #E669A5",
"=. c #EA5FA2",
"-. c #738698",
";. c #7589AF",
":. c #79A7D3",
">. c #6095C1",
",. c #7FD4E1",
"<. c #959094",
"1. c #B39E92",
"2. c #B7A985",
"3. c #BBB18C",
"4. c #B2B295",
"5. c #8794B5",
"6. c #B38CB4",
"7. c #9CBEB4",
"8. c #98AAA9",
"9. c #A6B9A7",
"0. c #B0B3B2",
"q. c #DA8D9A",
"w. c #D19189",
"e. c #EA9795",
"r. c #E89191",
"t. c #C5AA84",
"y. c #DCA282",
"u. c #D8A78A",
"i. c #C7B38D",
"p. c #DAB886",
"a. c #C8B795",
"s. c #DABA95",
"d. c #D4A793",
"f. c #E4A683",
"g. c #E5AA84",
"h. c #E9AA85",
"j. c #E5AD8A",
"k. c #E9AD8A",
"l. c #E6B18D",
"z. c #EAB28D",
"x. c #E6BD88",
"c. c #EDB694",
"v. c #EEB896",
"b. c #ECB398",
"n. c #EFBB9A",
"m. c #E2B190",
"M. c #F0BE9D",
"N. c #E9A692",
"B. c #D786AB",
"V. c #C888B5",
"C. c #D688B5",
"Z. c #D094B0",
"A. c #E589B3",
"S. c #F187BA",
"D. c #EA95BB",
"F. c #EA99AA",
"G. c #DBAAA5",
"H. c #D6A7BA",
"J. c #CAB4B3",
"K. c #EAA6AC",
"L. c #E9B9AF",
"P. c #9BC3BC",
"I. c #A9C4BA",
"U. c #B2C7A9",
"Y. c #D7C090",
"T. c #E5C184",
"R. c #EAC582",
"E. c #EDC983",
"W. c #E9C58A",
"Q. c #EDCB8B",
"!. c #E4C38B",
"~. c #F0CF8B",
"^. c #F1CE87",
"/. c #F3D28D",
"(. c #EDCD91",
"). c #E9C79A",
"_. c #F3D493",
"`. c #F3D69B",
"'. c #F6D99C",
"]. c #F8DB9C",
"[. c #F7D997",
"{. c #F0D09A",
"}. c #DDC9A6",
"|. c #C9C1AB",
" X c #E8C7A8",
".X c #F0C3A4",
"XX c #F1C6A9",
"oX c #F1C9AE",
"OX c #EDD3A7",
"+X c #F7DCA4",
"@X c #F9DEA4",
"#X c #F8DFAB",
"$X c #F3D9A8",
"%X c #F2CDB3",
"&X c #F4DCB3",
"*X c #F3D4B9",
"=X c #E7D2B4",
"-X c #FAE0A7",
";X c #FAE2AC",
":X c #FAE3B3",
">X c #FAE4BC",
",X c #FBE6B7",
"<X c #95B2D0",
"1X c #A7B3CD",
"2X c #B3B3D0",
"3X c #9D9EC5",
"4X c #D89CC1",
"5X c #E89BC1",
"6X c #F199C1",
"7X c #CEB2CE",
"8X c #EBAECA",
"9X c #8DCBCD",
"0X c #96CAC9",
"qX c #8BCED4",
"wX c #98CAD3",
"eX c #85D2DD",
"rX c #8BD1D9",
"tX c #95D1DF",
"yX c #A2C7C2",
"uX c #B4C2D4",
"iX c #81D4E0",
"pX c #88D3E0",
"aX c #99C5E1",
"sX c #A5D0E0",
"dX c #CDC5D2",
"fX c #EAC9D9",
"gX c #EFD0CF",
"hX c #FBE9C4",
"jX c #FAE8C7",
"kX c #FCEDD3",
"lX c #FAEEDA",
"zX c #FCF0DC",
"xX c #D0CDE3",
"cX c #EDD8E4",
"vX c #FDF2E2",
"bX c #F0E2E7",
"nX c #DEE0E6",
/* pixels */
",.,.,.,.,.,.,.,.,.,.,.,.,.,.,.,.,.,.,.,.,.,.,.,.,.,.,.3X4XuXiX,.,.,.,.,.,.,.,.,.,.,.,.,.,.,.,.,.,.,.,.,.,.,.,.,.,.,.,.,.,.,.,.,.",
",.,.,.,.,.,.,.,.,.,.,.,.,.,.,.,.,.,.,.,.,.iX,.,.,.,.iX#.D.8XsX,.,.iX,.,.,.,.,.,.,.,.,.,.,.,.,.,.,.,.,.,.,.,.,.,.,.,.,.,.,.,.,.,.",
",.,.,.,.,.,.,.,.,.,.,.,.,.,.,.,.,.,.,.,.,.iX,.,.,.,.1X' { $.&.1XiXiXiXiX,.,.,.,.,.,.,.,.,.,.,.,.,.,.,.,.,.,.,.,.,.,.,.,.,.,.,.,.",
",.,.,.,.,.,.,.,.,.,.,.,.,.,.,.,.,.,.,.,.iX,.,.,.,.iX@.C.( V.#.2XtXiXiXiX,.,.,.,.,.,.,.,.,.,.,.,.,.,.,.,.,.,.,.,.,.,.,.,.,.,.,.,.",
",.,.,.,.,.,.,.,.,.,.,.,.,.,.,.,.,.,.,.,.,.,.,.,.iXaX2X1X<XeXsXwXwX9.0XiXiXiX,.,.,.,.,.,.,.,.,.,.,.,.,.,.,.,.,.,.,.,.,.,.,.,.,.,.",
",.,.,.,.,.,.,.,.,.,.,.,.,.,.,.,.,.,.,.,.,.,.,.0X<X' X.fX1X6.*.fX2XuXp.i.P.eX,.,.,.,.,.,.,.,.,.,.,.,.,.,.,.,.,.,.,.,.,.,.,.,.,.,.",
",.,.,.,.,.,.,.,.,.,.,.,.,.,.,.,.,.,.,.,.,.pX9.K :.{ X.A.[ ) 5XbX} 2X&XdXq.n P.iX,.,.,.,.,.,.,.,.,.,.,.,.,.,.,.,.,.,.,.,.,.,.,.,.",
",.,.,.,.,.,.,.,.,.,.,.,.,.,.,.,.,.,.,.,.qXC.2XU.;.%...@ C.8XbXB.A.2XbX5X*.L.F 4.rX,.,.,.,.,.,.,.,.,.,.,.,.,.,.,.,.,.,.,.,.,.,.,.",
",.,.,.,.,.,.,.,.,.,.,.,.,.,.,.,.,.,.iXyXU.H.bX1X;.@.[ @ # 8XfXD.D.2X7XbX%.&.{.R c 0X,.,.,.,.,.,.,.,.,.,.,.,.,.,.,.,.,.,.,.,.,.,.",
",.,.,.,.,.,.,.,.,.,.,.,.,.,.,.,.,.9X3.T.Z.A.fX$.:.] _ $ @ } fX..V.uX' 6X8X%. Xx.T.c P.,.,.iXiX,.,.,.,.,.,.,.,.,.,.,.,.,.,.,.,.,.",
",.,.,.,.,.,.,.,.,.,.,.,.,.,.,.,.P.Z k.r.B.A.cX4X<X;.' 4X$ @ 8X5XxXdX;.8XB.| gXB.OXQ.a 0X,.,.iXiX,.,.,.,.,.,.,.,.,.,.,.,.,.,.,.,.",
",.,.,.,.,.,.,.,.,.,.,.,.,.,.,.rXw.8XG.r.J.{ A.' 0.1X5.' A.| 4XxX7X7X1X] ) Z.J.J.8XgXT.c qX,.,.,.,.,.,.,.,.,.,.,.,.,.,.,.,.,.,.,.",
",.,.,.,.,.,.,.,.,.,.,.,.,.,.,.4.} D.Z.|.J.Z.[ 5.xXC.cX5.6.C.nX<.$.4X0.<X6.4X1X6.D.%.p.J 2.iX,.,.,.,.,.,.,.,.,.,.,.,.,.,.,.,.,.,.",
",.,.,.,.,.,.,.,.,.,.,.,.,.,.0XI ` 6XH.uX6.C.1X<.` 4X5XG.J.cXK.F.A.@.w.6 2X6.7X2XV.} q.R p 7.,.,.,.,.,.,.,.,.,.,.,.,.,.,.,.,.,.,.",
",.,.,.,.,.,.,.,.,.,.,.,.,.,.4.M.V.L.=XC.7X0.0.q.@.oXgXC.B.@.B.H. XW.B.@.4XD.C.V.dXC.*.T R c rXiX,.,.,.,.,.,.,.,.,.,.,.,.,.,.,.,.",
",.,.,.,.,.,.,.,.,.,.,.,.,.qXI %XB.7X7X' $.V.#.q.T.~.$X+X+X`.'.+X+X'.'.}.Z.J.a.B.@.#.1.=XR j 7.,.,.,.,.,.,.,.,.,.,.,.,.,.,.,.,.,.",
",.,.,.,.,.,.,.,.,.,.,.,.,.9.W.,XgX#.@.G.K }.$X/./.[.[.'.>XkXkXjX:X+X'.[.[.[.Q.P n C g 5 a.U 6 ,.,.,.,.,.,.,.,.,.,.,.,.,.,.,.,.,.",
",.,.,.,.,.,.,.,.,.,.,.,.,.6 +XhX0.t.{.[.p E.'.+X/.[.+X:XhXkXvXzXkX>X#X'.[./.E.E.~ k g g 4 K p 0X,.,.,.,.,.,.,.,.,.,.,.,.,.,.,.,.",
",.,.,.,.,.,.,.,.,.,.,.,.qXF ;XJ.i.Q.+X/.v A /.+X#X[.[.'.>XkXvXlXkX>X;X+X'.`.[.[.Q.! H g g i D 9.,.,.,.,.,.,.,.,.,.,.,.,.,.,.,.,.",
",.,.,.,.,.,.,.,.,.,.,.,.9.E }.}.p.'.;XR v v R [.;X:X+X[.'.+X:X>X:X;X+X'.`.[.~.E.! ! ~ U g g g K iX,.,.,.,.,.,.,.,.,.,.,.,.,.,.,.",
",.,.,.,.,.,.,.,.,.,.,.,.4./.).&Xx.;X`.S L f.c E [.:X>X:X+X].+X-X-X-X+X'.[.^.E.E.! ~ ~ R Y g d i wX,.,.,.,.,.,.,.,.,.,.,.,.,.,.,.",
",.,.,.,.,.,.,.,.,.,.,.iXK I kXI +X>XE A f.f.f.c P [.#XhXjXjX>X:X;X;X,X,X,X:X+X`.~.R D R Y Y g w 9.,.,.,.,.,.,.,.,.,.,.,.,.,.,.,.",
",.,.,.,.,.,.,.,.,.,.,.0Xa =X X).>X>Xj v h.h.h.h.v C Q.].:XjXkXkXkXkXkXjX>X:X;X;X-X+X[.P A Y Y k Z eX,.,.,.,.,.,.,.,.,.,.,.,.,.,.",
",.,.,.,.,.,.,.,.,.,.,.9.s.jXI :XjX).s v v.c.h.h.h.f.c G Q.-X:XjXkXzXvXvXzXzXkXjX>X;X+X].~.F j U S yX,.,.,.,.,.,.,.,.,.,.,.,.,.,.",
",.,.,.,.,.,.,.,.,.,.qXi.lXK :XkXkXD u f.v.v.v.c.k.k.k.f.c c x.+X:X,X>XjXjXjXjXjXjXjXhX:X+X[.E.F j t.iX,.,.,.,.,.,.,.,.,.,.,.,.,.",
",.,.,.,.,.,.,.,.,.eX2.lXp.`.jXkX{.g c c.v.v.v.c.v.c.z.z.z.z.L c C W.;X,X:X;X;X-X+X+X+X;X:X:X+X[.E.A I.iX,.,.,.,.,.,.,.,.,.,.,.,.",
",.,.,.,.,.,.,.,.eX2.jXs.W.:XzXjXD i f.L c a a v j.v.v.c.c.c.c.c.z.L y Z W.+X;X-X+X].].[.[.'.#X+X'./.E I.,.,.,.,.,.,.,.,.,.,.,.,.",
",.,.,.,.,.,.,.,.4.OX XP :XvXvXx.j c L j.v.v.l.L a a v.v.v.v.v.c.z.y L z.L c F Q.+X].[.E /././.'.+X+X[.T.I.,.,.,.,.,.,.,.,.,.,.,.",
",.,.,.,.,.,.,.9.).OXF #XvXvXOXH u k.v.v.x.l.z.c.v.l.v.v.v.v.v.v.v.c.v.x.g.T T v p E [.[.P P /./.[.+X+X[.T.0X,.,.,.,.,.,.,.,.,.,.",
",.,.,.,.,.,.9XI &XC '.lXzX&XU f i z.v.f.w., , M j.v.v.v.v.v.v.v.v.c.m , : > b m l.L a P /.E.S E /./.'.+X/.Y.iX,.,.,.,.,.,.,.,.,.",
",.,.,.,.,.iX2.&XG ).kXkX&XR D y T z.5 > X . X & , e.c.v.v.v.v.v.c.m & X   o . % n c.z.c u Q /.W S ^./.'.'.~.yX,.,.,.,.,.,.,.,.,.",
",.,.,.,.,.7.).W.P jXkX&XR R u c h.y.%   ^ <X  o O > N.v.v.v.v.v.j.& ;.O   / ;.  ; c.c.m q 9 S /.E.A ! /.'.[.Y.iX,.,.,.,.,.,.,.,.",
",.,.,.,.,.3.+XC :XkX&X! Q p w z h.j.> + <X^   -.<X0.w.c.v.v.v.c.d.nX:.O O >.0.; w.c.c.m q 0 e p ~.[.F J /.[.E.0X,.,.,.,.,.,.,.,.",
",.,.,.,.iXp.I ).hX>XE.! S j 0 y h.z.v.t.8 -.5.8.0.oXb.c.v.v.v.v.c.c.1.8.8.<.2.m.c.c.c.n P t 0 q u Q.$XP F /./.9.,.,.,.,.,.,.,.,.",
",.,.,.,.iXx.A #X>X[.E.R C d t y k.z.n.v.n.c.c.v.c.v.v.c.z.v.v.v.v.c.c.c.c.c.b.c.c.c.z.l j ).g 0 0 u Q.jXT.S /.a.,.iXiX,.,.,.,.,.",
",.,.,.,.,.K Q :X$XE.! p H t t 9 f.k.n.b.b.b.b.b.b.v.v.c.j.v.v.v.v.b.b.b.b.b.b.b.b.c.c.z i J +XJ 0 w u [.kXT.F s.,.iXiX,.,.,.,.,.",
",.,.,.,.,.2.~.;X`.E.S R g t t s n h..Xc.b.b.b.b.b.v.v.c.j.v.v.v.v.v.c.b.b.b.b.c.v.o.O.n D q Q +XE w q C $XkXP n iX,.,.,.,.,.,.,.",
",.,.,.,.,.4.Q.#X/.T.C R g t t k < 5XL.c.b.b.b.c.n.v.v.c.l.v.v.v.v.v.v.c.b.b.b.c.n...S. .H S w ).+XE 0 e R jX>XG yX,.,.,.,.,.,.,.",
",.,.,.,.,.6 E.+X~.R P H d d g D +.D. .n.b.b.c.v.v.v.v.c.v.v.n.v.v.v.v.v.n.b.b.n.M.d.D.V U U f g +X+XJ w u `.kX`.3.,.,.,.,.,.,.,.",
",.,.,.,.,.2.E.`.~.F Q k g d g D v | o.c.v.v.v.v.v.v.v.j.f.z.f.j.v.v.v.v.v.v.n.n..XM ) w.U U U i R +X+Xk e J >X>XI eX,.,.,.,.,.,.",
",.,.,.,.,.9.E ~./.A E.D g d k H S { $ z.c.v.v.v.v.v.v.c.l.v.z.v.v.v.v.v.v.v.n..Xm.< { =.E D Y D i [.+X[.d u `.hXT.0X,.,.,.,.,.,.",
",.,.,.,.,.9XF E.[.A T.H g g k H x %.{ o.c.c.v.v.v.v.v.v.v.c.v.v.v.v.v.v.v.n..XoXn  .%.%.f.F W R i H +X+XR q J >X`.9.,.,.,.,.,.,.",
",.,.,.,.,.iX6 E.E.F ! R g g k H M &.&. .z.c.v.v.e.r.e.K.K.e.K.K.F.e.e.c.n..XXX.Xy , D.bX).T.A R D s Q.+X'.g u $X+X4.,.,.,.,.,.,.",
",.,.,.,.iX,.7.P E.R J ! g g k U L cXD., k.z.c.v.r.| 6XS.S.&.S.6X4X} r.n..XXX%Xn g g T {.'.~.S R R i J +X+XR e Q.+Xi.,.,.,.,.,.,.",
",.,.,.,.,.,.,.2.T.E.C E.D g k H U W.R q b z.c.v.v.r.Z.8XfXfX7XB.[ O.n.M..XoXs.G Y t ~ [.].+XE S R A g `.+X).i P +Xi.,.,.,.,.,.,.",
",.,.,.,.,.,.,.qXZ ! F E R g g H H E /.g 9 m z.c.c.c.F.8X6X%.=...+.c.M..XoX.Xz R R k U ~.;X;X`.p ! J g T.+X+Xj p '.4.,.,.,.,.,.,.",
",.,.,.,.,.,.,.,.9.i U C E.g g H H U Q.! 0 3 y.z.c.c.v.e.O.+.+.r.v.n..XoXoXl z R R Y k ~.+X,X:Xj R Q i Y +X#XJ u E.9.,.iX,.,.,.,.",
",.,.,.,.,.,.,.,.rXp i i E k g D U U E [.H 0 = y.c.c.v.v.v.v.v.v.n..XXXM.z v z R R R k ~.[.;X;XJ J ! i D #X#XE i F 0X,.,.,.,.,.,.",
",.,.,.,.,.,.,.,.,.3.i j S U g k U U Y ~.~.g 2 = m z.c.v.v.c.v.n..XXXu.z B L c R R R k ~.E.+X+XR F T.f D $X:XT.j a rX,.,.,.,.,.,.",
",.,.,.,.,.,.,.,.,.I.p i p U g g U U U ! [.Q e 1 - l f.c.v.v.n.n.u.l x N T y.c R R R k E.! ].[.R A E.f H +X:XW.D a iX,.,.,.,.,.,.",
",.,.,.,.,.,.,.,.,.rXp f i H g g U U U Q /./.g 2 * z z z b b b z x B z l b b l c W R j ! ~ /./.J S ! j H $X>XW.D c ,.,.,.,.,.,.,.",
",.,.,.,.,.,.,.,.,.iXC j i k g g H U Y R /./.R e 1 * B N N N N N x l j.v.c.v.v.c.b G d R ~ /./.D F F H U $X>XT.H G iX,.,.,.,.,.,.",
",.,.,.,.,.,.,.,.,.iXp k i k j g D U Y R /./.E.t 2 * z N N N N x l c.n.n.n.n.n.v.v.n 2 U R /.^.A P A U U $XhXT.H F rX,.,.,.,.,.,.",
",.,.,.,.,.,.,.,.,.qXp i j k j g k Y Y ! ~./.E.k e 1 = N N N B 3 c.n..X.XXX.X.Xn.v.v.y.3 R /.E.p J D Y U :XkXE Y I eX,.,.,.,.,.,.",
",.,.,.,.,.,.,.,.,.9.j j k k k g j R R E.~./.T.H 0 2 * x N N z y.n..XXX%X%XoXXX.Xn.v.v.y.z /.! p A R R Y hXkXY ! p.,.,.,.,.,.,.,.",
",.,.,.,.,.,.,.,.qXC j k k k k k j R R ~./.Q.Q U 0 9 * z N T : v.n..XoX%X*X%XoX.Xn.v.v.v.m c J a J R R E kX:XR Q.i.,.,.,.,.,.,.,.",
",.,.,.,.,.,.,.eXt.D D D k k k k k R E././.E.R Y 0 q 1 = T f.l v.n..X%X*XgX*X%X.Xn.v.v.v.v.l y A R R R Q.kX$XR `.4.,.,.,.,.,.,.,.",
",.,.,.,.,.,.eX3.D H H D k k k k H E././.~.! R Y 0 0 1 - f.y.n v.n..XoX%X*X%XoX.Xn.v.v.v.v.c.= R Q Q Q $XzXW.! Q.9.,.,.,.,.,.,.,.",
",.,.,.,.,.qX6 D H R R H D k k k E././.~.! R R H 0 0 1 * j.m y.v.n.n..XoXoXoX.Xn.n.v.v.v.v.v.y.z ! ! ! hXkXR [.p.qX,.,.,.,.,.,.,.",
",.,.,.,.qX7 J T.$XT.H H D k U Q./.Q.E.R R R R k 0 0 1 * f.b y.v.v.n.n..X.X.Xn.n.v.v.v.v.v.v.v.l P ! ! vX$X! +Xi.,.,.,.,.,.,.,.,.",
",.,.,.qXZ R &X&XY H H D R E.[.Q.R k D R R E R t 0 0 1 * j.b j.v.v.v.v.n.n.n.n.v.v.v.v.v.v.v.v.l.3 T.`.kXT.[.`.9.,.,.,.,.,.,.,.,.",
",.,.qXc T.hXOXU U U E ~.[.E.H g g Y R R E E D 0 0 e 1 3 c.l j.v.v.v.v.v.v.v.v.v.v.v.v.v.v.v.v.v.b L :XQ.E.+Xx.qX,.,.,.,.,.,.,.,.",
",.eX6 T.hX{.Y Y ! [.[.E j t t H R R R E E Y t 0 0 2 p m c.l l.v.v.v.v.v.v.v.v.v.v.v.v.v.v.v.v.v.c.3 ).E.'.+X|.,.,.,.,.,.,.,.,.,.",
"iX2.x.>X$XR R /.[.T.p i g k R R R R E E R d 0 0 0 2 G c.v.l c.v.v.v.v.v.v.v.v.v.v.v.v.v.v.v.v.v.v.b P `.+X{.I.,.,.,.,.,.,.,.,.,."
};
