/* XPM */
static char *c491e37132e64101fb4efd6c278e031588ZkrjAdhNoNANHU[] = {
/* columns rows colors chars-per-pixel */
"24 24 6 1 ",
"  c None",
". c #110A03",
"X c #0E353E",
"o c #156948",
"O c #59B32D",
"+ c #F0E1C9",
/* pixels */
"                        ",
"                        ",
"                        ",
"                        ",
"                        ",
"                        ",
"                        ",
"                        ",
"                        ",
"                        ",
"                        ",
"                        ",
"       ..........       ",
"      .OO+OOO+OOO.      ",
"      .+OoOooOo+O.      ",
"      ..ooO+oO.oO.      ",
"      .O.oOoo.oO+.      ",
"      .O.o+oO.ooO.      ",
"      .X+XXooXooX.      ",
"      .XooXo+XoX+.      ",
"      .Xo+XXoX+oX.      ",
"      .+XoXooXoXX.      ",
"      .XXXX+XXXX+.      ",
"       ..........       "
};
