/* XPM */
static char *collectible[] = {
/* columns rows colors chars-per-pixel */
"64 64 241 2 ",
"   c None",
".  c #014B6E",
"X  c #024567",
"o  c #045676",
"O  c #12536F",
"+  c #2B5D70",
"@  c #02607D",
"#  c #336E75",
"$  c #2B5459",
"%  c #5E6657",
"&  c #706E53",
"*  c #6F4275",
"=  c #4E7470",
"-  c #635F57",
";  c #736A39",
":  c #BD3A2E",
">  c #C8382A",
",  c #91742E",
"<  c #AF6826",
"1  c #D94A3A",
"2  c #E64C3C",
"3  c #F74B35",
"4  c #F64D38",
"5  c #F9523C",
"6  c #8D665C",
"7  c #974F6F",
"8  c #B05A69",
"9  c #917065",
"0  c #AE6666",
"q  c #9B5153",
"w  c #D2504A",
"e  c #FA5B47",
"r  c #E7584B",
"t  c #FE604B",
"y  c #FC6856",
"u  c #FD6C5B",
"i  c #FB6452",
"p  c #F06857",
"a  c #DC4D6B",
"s  c #DC516D",
"d  c #CE566B",
"f  c #E15571",
"g  c #E55A75",
"h  c #E85E79",
"j  c #E0526F",
"k  c #CD6D68",
"l  c #EB647D",
"z  c #F27669",
"x  c #D76F5C",
"c  c #768366",
"v  c #79876B",
"b  c #739074",
"n  c #6D997D",
"m  c #BF8018",
"M  c #D3840D",
"N  c #E68800",
"B  c #E58A05",
"V  c #EA9514",
"C  c #EF9815",
"Z  c #D19536",
"A  c #F39A2A",
"S  c #F3982B",
"D  c #EA9630",
"F  c #EEA329",
"G  c #F4A524",
"H  c #F5A92C",
"J  c #F6A729",
"K  c #F6AB37",
"L  c #FDB23A",
"P  c #EAA635",
"I  c #DBA133",
"U  c #958C59",
"Y  c #AC9150",
"T  c #BEA14C",
"R  c #848F75",
"E  c #889379",
"W  c #888967",
"Q  c #92A272",
"!  c #ADA664",
"~  c #C38F49",
"^  c #D1A950",
"/  c #FBB747",
"(  c #EFB34D",
")  c #D78575",
"_  c #FE8779",
"`  c #E88373",
"'  c #D4AC6C",
"]  c #F7BE63",
"[  c #E39E4D",
"{  c #FAC268",
"}  c #FAC876",
"|  c #FDC05D",
" . c #02748C",
".. c #12718C",
"X. c #206880",
"o. c #2C6D8A",
"O. c #145A81",
"+. c #67519C",
"@. c #70519A",
"#. c #786398",
"$. c #5F51A5",
"%. c #6052A7",
"&. c #6659AA",
"*. c #6A5CB2",
"=. c #796CAC",
"-. c #7569B5",
";. c #7C72BA",
":. c #7E74B5",
">. c #6D6DB4",
",. c #574489",
"<. c #8F6693",
"1. c #B16D8A",
"2. c #8478BB",
"3. c #907EBA",
"4. c #88578A",
"5. c #F46B87",
"6. c #FA718D",
"7. c #F0748F",
"8. c #FC7B95",
"9. c #F97792",
"0. c #EC768B",
"q. c #D57481",
"w. c #867CC0",
"e. c #8176C0",
"r. c #00858E",
"t. c #0C8B95",
"y. c #058896",
"u. c #118D98",
"i. c #18929C",
"p. c #11878F",
"a. c #318B96",
"s. c #1D89A9",
"d. c #1C95A1",
"f. c #1391A0",
"g. c #1C91B4",
"h. c #1896B9",
"j. c #2498A7",
"k. c #3194AD",
"l. c #36A2BC",
"z. c #31A3AD",
"x. c #529294",
"c. c #769B8D",
"v. c #78A197",
"b. c #528EA5",
"n. c #698FB6",
"m. c #4FA9B0",
"M. c #6CAEB5",
"N. c #1C9EC2",
"B. c #2DA7C7",
"V. c #7496C6",
"C. c #47B0CA",
"Z. c #7DB9D8",
"A. c #6DB2CB",
"S. c #66C4D4",
"D. c #7ACBDC",
"F. c #65C2CF",
"G. c #7FD4E1",
"H. c #929688",
"J. c #B38E8F",
"K. c #98A48A",
"L. c #9EAC92",
"P. c #A3AB95",
"I. c #A8B59B",
"U. c #B3AF8E",
"Y. c #9687BB",
"T. c #8288A9",
"R. c #B393B1",
"E. c #8BACAC",
"W. c #B5BDA7",
"Q. c #BBA5B9",
"!. c #AFB2A4",
"~. c #D1958F",
"^. c #FE829C",
"/. c #EA9090",
"(. c #D6AD97",
"). c #DB8BA3",
"_. c #CB97AD",
"`. c #FF87A0",
"'. c #DBB5A6",
"]. c #CCADAE",
"[. c #E3BAAB",
"{. c #EBB5AC",
"}. c #E4A08E",
"|. c #B6C4AB",
" X c #B8C2AE",
".X c #B2C9B5",
"XX c #B1C194",
"oX c #F7CE93",
"OX c #CECCB6",
"+X c #E9C9B7",
"@X c #EBD4BE",
"#X c #F7DAB7",
"$X c #F0CAAE",
"%X c #FBE1B9",
"&X c #D1C49F",
"*X c #948EC4",
"=X c #A398C2",
"-X c #84AAD2",
";X c #94B0CB",
":X c #AAA8CA",
">X c #A6B6C7",
",X c #B8AECD",
"<X c #C8BDD4",
"1X c #87CCDA",
"2X c #93CAD8",
"3X c #83D2DE",
"4X c #8CD2D7",
"5X c #98D3D7",
"6X c #96C8C8",
"7X c #B1D1D2",
"8X c #81D4E1",
"9X c #8BD7E3",
"0X c #97D9E3",
"qX c #A8DCE4",
"wX c #B5DEE4",
"eX c #BDE3EB",
"rX c #C9D2C2",
"tX c #D8D9CD",
"yX c #C6DAD8",
"uX c #D1CACD",
"iX c #E9D6C7",
"pX c #F4DAC6",
"aX c #E6D7D5",
"sX c #EBD1CB",
"dX c #D8E2D7",
"fX c #F5E1CD",
"gX c #F9E3CC",
"hX c #FBE6C6",
"jX c #FFEDD9",
"kX c #F9E9D6",
"lX c #EAE8D5",
"zX c #CDDDE5",
"xX c #E7DDE3",
"cX c #C9E3E8",
"vX c #D6E7EA",
"bX c #E9E8E6",
"nX c #F4EAE9",
"mX c #F1E6E4",
"MX c #FEFEFE",
"NX c #F8F7F7",
"BX c #F6F4EF",
/* pixels */
"G.G.G.G.G.G.G.G.G.G.G.G.G.G.G.G.G.G.G.G.8XG.G.8XG.G.G.G.G.G.G.G.G.G.G.G.8XG.8XG.G.G.G.G.8X8X8XG.G.G.G.G.G.G.G.G.G.G.G.G.G.G.G.G.",
"G.G.G.G.G.G.G.G.G.G.G.G.G.G.G.G.G.G.G.G.8X8X8X8XG.G.G.G.G.8X2X>XQ.).7.).Q.1XG.G.G.G.G.G.8X8X8XG.G.G.G.G.G.G.G.G.G.G.G.G.G.G.G.G.",
"G.G.G.G.G.G.G.G.G.G.G.G.G.G.G.G.G.G.G.G.8XG.G.G.3X2X:X_.).7.6.6.6.6.6.6.6.6._.>X8XG.G.G.G.G.G.G.G.G.G.G.G.G.G.G.G.G.G.G.G.G.G.G.",
"G.G.G.G.G.G.G.G.G.G.G.G.G.G.G.G.G.G.G.1X>XQ._.).6.6.6.9.9.9.9.9.9.9.9.9.6.6.6.6.7.Q.2XG.G.G.G.G.G.G.G.G.G.G.G.G.G.G.G.G.G.G.G.G.",
"G.G.G.G.G.G.G.G.G.G.G.G.G.8X2X>XQ.).7.6.6.6.9.9.^.^.`.`.`.`.`.`.`.`.`.`.^.9.6.6.6.6.6.).>X3XG.G.G.G.G.G.G.G.G.G.G.G.G.G.G.G.G.G.",
"G.G.G.G.G.G.G.G.G.G.3X_.).9.6.6.6.6.6.6.9.^.`.`.`.`.`.`.`.`.`.`.`.`.`.^.^.6.6.6.6.6.6.6.6.6.R.1XG.G.G.G.G.G.G.G.G.G.G.G.G.G.G.G.",
"G.G.G.G.G.G.G.G.G.G.G.].0.5.6.6.6.6.6.6.^.`.`.`.`.`.`.`.`.`.`.`.^.8.9.6.6.6.6.6.5.5.h g a a a J.G.G.G.G.G.G.G.G.G.G.G.G.G.G.G.G.",
"G.G.G.G.G.G.G.G.G.G.G.yXpX[./.5.6.6.6.6.6.9.9.9.9.8.9.9.9.9.9.6.6.6.6.5.5.h f a a a a a a a a d G.G.G.G.G.G.G.G.G.G.G.G.G.G.G.G.",
"G.G.G.G.G.G.G.G.G.G.G.yXgXgXpX[./.0.6.6.6.6.6.6.6.6.6.6.6.6.5.l g f a a a a f f f a a a a a a s G.G.G.G.G.G.G.G.G.G.G.G.G.G.G.G.",
"G.G.G.G.G.G.G.G.G.G.G.].pXgXgXgXpX[./.0.5.6.6.6.5.5.l g j a a a f g h l l l l l l g a a a a a 1.G.G.G.G.G.G.G.G.G.G.G.G.G.G.G.G.",
"G.G.G.G.G.G.G.G.G.G.G.3X>X'.+XgXgXgXiX[.}.0.g a a a a a a f h l l l l l l l g f a a a d 8 0 H.1XG.G.G.G.G.G.G.G.G.G.G.G.G.G.G.G.",
"G.G.G.G.G.G.G.G.G.G.G.G.8XG.H.~.$XgXgXgX@X'.g a a a a a g l l l h g g f a a d 8 6 6 & & c v v H.E.4XG.G.G.G.G.G.G.G.G.G.G.G.G.G.",
"G.G.G.G.G.G.G.G.G.G.G.G.G.G.c.c U.}.{.pXgXpXg a a a a a a a a a d 8 0 9 9 c v v R E E H.L.I..XrX7X3XG.G.G.G.G.G.G.G.G.G.G.G.G.G.",
"G.G.G.G.G.G.G.G.G.G.G.G.G.G.v.c I.|.W.~.{.+Xg a a a a d 8 0 9 W v R E E E E H.K.I. XrXtXdXwX0X8XG.G.G.G.G.G.G.G.G.G.G.G.G.G.G.G.",
"G.G.G.G.G.G.G.G.G.G.G.G.G.G.v.c L.|.|.|.W.~.q.~.~.J.R c v v R E E E K.P.W.OXtXdXbXBXNXMXMX9XG.G.G.G.G.G.G.G.G.G.G.G.G.G.G.G.G.G.",
"G.G.G.G.G.G.G.G.G.G.G.G.3XI.~ Y W v H.L.W.|.|.|.|.|.|.|.P.E c c I.tXdXbXbXbX    MXMXMXMXMXvXG.G.4X3XG.G.G.G.G.G.G.G.G.G.G.G.G.G.",
"G.G.G.G.G.G.G.G.G.G.G.G.' A A S S D ~ Y W R K.I.|.|.|.|.|.K.c c W.bX          MXMXMXMXMXbXtX&X.X4X8XG.G.G.G.G.G.G.G.G.G.G.G.G.G.",
"G.G.G.G.G.G.G.G.G.G.G.G.^ G G G G G A S S D ~ U W E L.W.|.K.c c |.MXMXMX        rXOX(.' ( L / } 5XG.G.G.G.G.G.G.G.G.G.G.G.G.G.G.",
"G.G.G.G.G.G.G.G.G.G.G.G.( G { } H G G G G G G A S Z Y U R R c c W.MXNXbXrX&X' [ [ K L / | oXpXvXG.G.G.G.G.G.G.G.G.G.G.G.G.G.G.G.",
"G.G.G.G.G.G.G.G.G.G.G.G.( H #XgX} G G G / / G G G G G A A Z Y U U.(.' [ D S K L L ] } $XkXNXMXcXB.F.G.G.G.G.G.G.G.G.G.G.G.G.G.G.",
"G.G.G.G.G.G.G.G.G.G.G.G.( G ] #X] G G H %XgX( G G G H H G G G G A A A K L L / { oX@XmXMXMXMXMXeXN.N.N.C.D.G.G.G.G.G.G.G.G.G.G.G.",
"G.G.G.G.G.G.G.G.G.G.G.G.XX' P G G G G G oXgX{ G G H %X#XK G G G G G G G H } $XpXnXMXMXMXMXMXMX7X..g.N.h.h.C.G.G.G.G.G.G.G.G.G.G.",
"G.G.G.G.G.G.G.G.G.G.G.G.G.G.G.6X' Y Z G G / H G G J %XgX{ G G G oXoXH G G #XNXMXMXMXMXMXMXMXkXP.X.X.s.g.g.l.G.G.G.G.G.G.G.G.G.G.",
"G.G.G.G.G.G.G.G.G.G.G.G.G.G.G.4X'.'.E.a.x.Q ~ F G G K } H G G K hXgX] G H hXMXMXMXMXMXBX@XE.o.X.X.X.s.g.g.l.G.G.G.G.G.G.G.G.G.G.",
"G.G.G.G.G.G.G.G.G.G.G.G.G.G.G.5XgX@X'.'.P.k.h.h.x.b Y I G G G G { oXK G H jXMXMXMXkX.Xm.g.g.X.X.X.X.s.g.g.l.G.G.G.G.G.G.G.G.G.G.",
"G.G.G.G.G.G.G.G.G.G.G.G.G.G.G.qXgXgXgX@X[.'.!.b.h.h.h.h.a.n U Z G G G G H jXBXiXE.k.g.g.g.g.X.X.X.X.s.g.g.l.G.G.G.G.G.G.G.G.G.G.",
"G.G.G.G.G.G.G.G.G.G.G.G.G.G.G.S.M.rXgXgXgXpX+X'.!.b.h.h.g.g.s.X.# = U T ( &XM.g.g.g.g.g.g.g.X.X.X.X.s.g.g.C.G.G.G.G.G.G.G.G.G.G.",
"G.G.G.G.G.G.G.G.G.G.G.G.G.G.4X.XU.U v.rXgXgXgXpX+X'.k.g.g.g.s.X.X.X...g.g.g.g.g.g.g.g.g.g.g.X.# c b A.D.G.G.G.G.G.G.G.G.G.G.G.G.",
"G.G.G.G.G.G.G.G.G.G.G.G.8X8XOX{ / L P Y v.7XgXgXgXpXk.g.g.g.s.+ X.X...g.g.g.g.g.g.k.x.c.Q ~ F C V B Z G.G.G.G.G.G.G.G.G.G.G.G.G.",
"G.G.G.G.G.G.G.G.G.G.G.G.8X8X7X@XoX} / L H Y c.7XgXgXk.g.g.g.s.X.X.X...g.k.x.Q ! ^ G C V N N N N N N N M.D.G.G.G.G.G.G.G.G.G.G.G.",
"G.G.G.G.G.G.G.G.G.G.8X8X8X8XyXjXkX@X$X} / L L T c..Xk.g.g.g.s.= c U ~ P G C V N N N N N N N N N N N M n.;XG.G.G.G.G.G.G.G.G.G.G.",
"G.G.G.G.G.G.G.G.G.G.G.8X8X8X5XOXhXjXkXpX$XoX] L L ^ c.n ! ^ F G V B N N N N N N N N N N N N N M Z ' ].5X8XG.G.G.G.G.G.G.G.G.G.G.",
"G.G.G.G.G.G.G.G.G.G.G.G.G.G.G.A.+ P.hXjXjXpX$XoX| J C V B N N N N N N N N N N N N N < , & = x.E.uXaXcXG.G.G.G.G.G.G.G.G.G.G.G.G.",
"G.G.G.G.G.G.G.G.G.G.G.G.G.G.G.D.X X + P.hXkXjXkX#XA N N N N N N N N N N M < , % # X...o.b.;XuXaXBXMXMX0XG.G.G.G.G.G.G.G.G.G.G.G.",
"G.G.G.G.G.G.G.G.G.G.G.G.G.G.G.S.o . . . + K.#XkXhXP N N N N N M , ; % $ X X . o O.o.n.>XuXsXmXMXMXMXMXeX8XG.G.G.G.G.G.G.G.G.G.G.",
"G.G.G.G.G.G.G.G.G.G.G.G.G.F.j.y. .o o . . . O H.$XV < , % $ O . . . . . . . . . . b.uXsXaXNXMXMXMXMXvX5X8XG.G.G.G.G.G.G.G.G.G.G.",
"G.G.G.G.G.G.G.G.G.G.G.F.l.d.i.u.y.y.y.r. . .@ o O . . . . . . . . . . . . . . . . E.sXnXMXMXMXNXcX2X8XG.G.G.G.G.G.G.G.G.G.G.G.G.",
"G.G.G.G.G.G.G.G.G.G.m.r.t.t.i.i.d.j.j.d.d.f.u.y.y. . . .o o . . . . . . . . . . . ;XMXMXMXNXzX2X8XG.G.G.G.G.G.G.G.G.G.G.G.G.G.G.",
"G.G.G.G.G.G.G.G.G.G.u.r.r.r.r.r.r.r.r.y.t.u.i.i.j.j.d.d.i.u.y. . .@ o . . . . . . n.MXNXzXtXwXG.G.G.G.G.G.G.G.G.G.G.G.G.G.G.G.G.",
"G.G.G.G.G.G.G.G.G.G.t.r.r.r.r.r.t.r.r.r.r.r.r.r.r.r.r.y.t.u.i.i.d.d.d.u.p.b.x.o.O b.yXtXgXOXk J.6XG.G.G.G.G.G.G.G.G.G.G.G.G.G.G.",
"G.G.G.G.G.G.G.G.G.G.j.r.r.r.r.r.i.y.i.u.t.i.r.i.r.t.r.r.r.r.r.r.r.r.r.i.7XrXOXuXpXpXgXtX(.w e t t z !.3XG.G.G.G.G.G.G.G.G.G.G.G.",
"G.G.G.G.G.G.G.G.G.G.S.z.j.t.r.r.r.r.r.r.r.t.r.i.r.d.t.i.i.r.r.r.r.r.r.m.7XOXiXgXgXtX[.` _ /._ y e e e e G.G.G.G.G.G.G.G.G.G.G.G.",
"G.G.G.G.G.G.G.G.G.G.G.G.G.G.~.0 q - - = # ..r.r.r.r.r.r.r.r.r.r.r.r.r.m.yXpXgXtX~.r t z _ u u y 3 3 3 3 8XG.G.G.G.G.G.G.G.G.G.G.",
"G.G.G.G.G.G.G.G.G.G.G.G.G.G.+X'.}.x > > > > : : q H.c.= a.p.r.r.r.r.r.m.yXaX(.r 5 4 4 3 y y y y 3 3 3 3 G.G.G.G.G.G.G.G.G.G.G.G.",
"G.G.G.G.G.G.G.G.G.G.G.G.G.G.gXpX+X'.(.x 1 1 2 2 2 2 p /.z z /.~.9 & % = ].p 3 3 3 3 3 3 y y y y 3 3 3 4 8XG.G.G.G.G.G.G.G.G.G.G.",
"G.G.G.G.G.G.G.G.G.G.G.G.G.1XpXgXgXpX+X'.(.) w e e t e e y _ y u u 3 3 3 3 3 3 3 3 3 3 3 y y y y 3 3 3 3 -X-XD.G.G.G.G.G.G.G.G.G.",
"G.G.G.G.G.G.G.G.G.G.G.G.D.T.8 }.pXgXgXpX@X'.'.) w 5 4 3 3 y y y y 3 3 3 3 3 3 3 3 3 3 3 y y y y 3 3 r d 2.Y.D.G.G.G.G.G.G.G.G.G.",
"G.G.G.G.G.G.G.G.G.G.G.D.&.&.&.<.8 }.pXgXgXgX@X'.x 3 3 3 3 y y y y 3 3 3 3 3 3 3 3 3 3 3 y x k 1.<.2.2.R.'.uXG.G.G.G.G.G.G.G.G.G.",
"G.G.G.G.G.G.G.G.G.G.G.V.&.&.*.-.$.+.7 ~.pXgXgXgX) 3 3 3 3 y y y y 3 3 3 3 3 3 2 w q 7 4.=.2.w.e.2.R.'.@XkXlXG.G.G.G.G.G.G.G.G.G.",
"G.G.G.G.G.G.G.G.G.G.G.n.&.&.-.*.$.$.&.+.7 ~.@XgX` 3 3 3 3 y y y u 4 r w q * * ,.+.=.2.w.w.e.2.R.'.@XkXjXjXlXG.G.G.G.G.G.G.G.G.G.",
"G.G.G.G.G.G.G.G.G.G.G.>.&.&.;.*.$.$.&.&.&.+.7 ) x 3 3 3 2 d 8 1.<.#.#.#.=.=.-.;.w.w.w.;.3._.[.iXkXjXjXjXjXlXG.G.G.G.G.G.G.G.G.G.",
"G.G.G.G.G.G.G.G.G.G.G.>.&.&.;.&.$.$.&.&.&.&.&.&.7 8 4.@.&.&.&.&.%.&.*.2.;.2.w.w.w.;.Y.].[.pXkXjXjXjXjXjXjXlXG.G.G.G.G.G.G.G.G.G.",
"G.G.G.G.G.G.G.G.G.G.G.>.&.&.;.&.&.&.&.&.&.&.&.&.$.$.$.%.&.&.$.&.$.$.&.2.%.$.%.*.Y.].+XpXkXjXjXjXjXjXjXjXjXlX8XG.G.G.G.G.G.G.G.G.",
"G.G.G.G.G.G.G.G.G.G.G.n.&.&.;.&.&.&.&.$.&.&.$.$.$.$.$.&.&.&.&.$.$.$.%.2.%.&.$.*.@XpXjXjXjXjXjXjXjXjXjXjXjXlX8X8XG.G.G.G.G.G.G.G.",
"G.G.G.G.G.G.G.G.G.G.G.V.&.&.-.*.&.&.$.$.$.$.$.$.$.$.$.$.&.&.$.$.$.$.%.;.&.&.&.2.jXjXjXjXjXjXjXjXjXjXjXjXkX,X1X8XG.G.G.G.G.G.G.G.",
"G.G.G.G.G.G.G.G.G.G.8X-X&.&.-.*.$.$.$.$.$.$.$.$.$.$.$.$.$.&.$.$.&.$.%.;.&.&.&.*XjXjXjXjXjXjXjXjXjXjXlX,X-X3X8X8XG.G.G.G.G.G.G.G.",
"G.G.G.G.G.G.G.8XqXcXnXmX=X3.:.*.$.$.$.$.&.&.&.&.&.$.$.$.$.$.$.$.&.$.&.;.&.&.%.*XjXjXjXjXjXjXjXjXaX:XZ.G.G.G.G.G.G.G.G.G.G.G.G.G.",
"G.G.G.G.8X0XcXbXnXnXnXnXnXnXnXxXuX:XY.-.&.$.$.&.$.$.$.$.$.$.$.$.&.&.%.;.&.&.%.*XjXjXjXjXjXjXaX:XZ.G.G.G.G.G.G.G.G.G.G.G.G.G.G.G.",
"G.G.G.G.8X0XwXcXbXnXnXnXnXnXnXnXnXnXnXnXmXaX,X=X2.*.$.$.&.&.&.&.$.$.%.;.&.&.%.w.jXjXjXjXaX:XZ.G.G.G.G.G.G.G.G.G.G.G.G.G.G.G.G.G.",
"G.G.G.G.G.G.G.G.G.8X0XqXcXvXbXnXnXnXnXnXnXnXnXnXnXnXxX<X:XY.=.$.$.$.%.;.&.&.&.-.jXjXuX:XZ.G.G.G.G.G.G.G.G.G.G.G.G.G.G.G.G.G.G.G.",
"G.G.G.G.G.G.G.G.G.G.G.G.G.G.8X9XqXwXvXbXnXnXnXnXnXnXnXnXnXnXnXmXuX,X=X=X*.$.$.*.,X;XZ.8XG.G.G.G.8XG.G.G.G.G.G.G.G.G.G.G.G.G.G.G.",
"G.G.G.G.G.G.G.G.G.G.G.G.G.G.G.G.G.G.G.G.9X0XwXcXbXnXnXnXnXnXnXnXnXnXnXnXnXaX,XV.Z.G.G.G.G.G.G.G.G.G.G.G.G.G.G.G.G.G.G.G.G.G.G.G.",
"G.G.G.G.G.G.G.G.G.G.G.G.G.G.G.G.G.G.G.G.G.G.G.G.G.8X0XwXcXvXnXnXnXnXnXnXcXqX8XG.G.G.G.G.G.G.G.G.G.G.G.G.G.G.G.G.G.G.G.G.G.G.G.G.",
"G.G.G.G.G.G.G.G.G.G.G.G.G.G.G.G.G.G.G.G.G.G.G.G.G.G.G.G.G.G.G.0XqXeXqX8XG.G.G.G.G.G.G.G.G.G.G.G.G.G.G.G.G.G.G.G.G.G.G.G.G.G.G.G."
};
