/* XPM */
static char *enemy[] = {
/* columns rows colors chars-per-pixel */
"64 64 242 2 ",
"   c #0A0F0E",
".  c #251C2D",
"X  c #291D29",
"o  c #172F2D",
"O  c #312931",
"+  c #59361C",
"@  c #4D2F2A",
"#  c #593624",
"$  c #623826",
"%  c #643A36",
"&  c #684529",
"*  c #714C2E",
"=  c #6A4438",
"-  c #754937",
";  c #785438",
":  c #2D2A47",
">  c #393458",
",  c #493A50",
"<  c #433C62",
"1  c #2E5652",
"2  c #326864",
"3  c #4F4D55",
"4  c #6C4444",
"5  c #714545",
"6  c #784B47",
"7  c #7C4D4C",
"8  c #7C5744",
"9  c #7E524D",
"0  c #704E58",
"q  c #7E5252",
"w  c #7F5958",
"e  c #474463",
"r  c #4A4565",
"t  c #4B4868",
"y  c #4C4A6A",
"u  c #524C6C",
"i  c #55506D",
"p  c #5B5778",
"a  c #6E5B6B",
"s  c #645D79",
"d  c #596568",
"f  c #766A75",
"g  c #875435",
"h  c #845B39",
"j  c #8B6139",
"k  c #976939",
"l  c #A8753A",
"z  c #B37E3E",
"x  c #824D46",
"c  c #82514E",
"v  c #88574A",
"b  c #96584B",
"n  c #845453",
"m  c #8C5653",
"M  c #8D5955",
"N  c #86575A",
"B  c #8E5B5B",
"V  c #935553",
"C  c #935B55",
"Z  c #9A5855",
"A  c #925C5B",
"S  c #9B5B5A",
"D  c #A85D4E",
"F  c #A35C55",
"G  c #A45D5B",
"H  c #896549",
"J  c #946A47",
"K  c #9C734A",
"L  c #8D6255",
"P  c #93615D",
"I  c #996659",
"U  c #9A7457",
"Y  c #A97949",
"T  c #A3635B",
"R  c #A76758",
"E  c #AB645B",
"W  c #B66B5B",
"Q  c #A47B5A",
"!  c #B27A51",
"~  c #8E5F61",
"^  c #935E60",
"/  c #9C5D60",
"(  c #A65F60",
")  c #896666",
"_  c #946363",
"`  c #9A6362",
"'  c #986A68",
"]  c #9D6B6A",
"[  c #987769",
"{  c #896D76",
"}  c #987878",
"|  c #A76965",
" . c #A56B65",
".. c #B36D63",
"X. c #B66B67",
"o. c #AA7567",
"O. c #B97666",
"+. c #A06E70",
"@. c #A77572",
"#. c #B67C76",
"$. c #C4735E",
"%. c #CB7665",
"&. c #C57867",
"*. c #CC7D6A",
"=. c #D47A66",
"-. c #D87966",
";. c #C47D71",
":. c #D67B75",
">. c #E57D6B",
",. c #E47E70",
"<. c #B9844A",
"1. c #AB8158",
"2. c #B8875A",
"3. c #968471",
"4. c #AA8465",
"5. c #B78A67",
"6. c #BB8B72",
"7. c #BC9475",
"8. c #C48A57",
"9. c #CE9755",
"0. c #C99459",
"q. c #C9846B",
"w. c #D2836D",
"e. c #D8856B",
"r. c #C4976A",
"t. c #D29C66",
"y. c #C98577",
"u. c #D58571",
"i. c #D78774",
"p. c #DB8A74",
"a. c #DC8D7A",
"s. c #C69B77",
"d. c #DC9379",
"f. c #E7866D",
"g. c #EA8775",
"h. c #E38D74",
"j. c #E38D7B",
"k. c #EC8D7A",
"l. c #F08D76",
"z. c #E3927D",
"x. c #ED937C",
"c. c #E9987A",
"v. c #F19478",
"b. c #F1937C",
"n. c #D9A56C",
"m. c #CEA176",
"M. c #D4A87D",
"N. c #D7B079",
"B. c #E9B26F",
"V. c #E4AD76",
"C. c #EAB479",
"Z. c #5C778B",
"A. c #686585",
"S. c #766C83",
"D. c #7B7186",
"F. c #7D738B",
"G. c #7C7694",
"H. c #83778B",
"J. c #977485",
"K. c #867C97",
"L. c #A67780",
"P. c #738EA5",
"I. c #7DB7C9",
"U. c #7CC6D4",
"Y. c #7FD1DE",
"T. c #7FD4E1",
"R. c #8C859B",
"E. c #958A92",
"W. c #8C989B",
"Q. c #B0958F",
"!. c #A9A18F",
"~. c #8B87A3",
"^. c #958CA6",
"/. c #9A93AA",
"(. c #979AAF",
"). c #A699A9",
"_. c #A69DB4",
"`. c #8FAAAB",
"'. c #B5A8AB",
"]. c #A9AAB2",
"[. c #B4A8B9",
"{. c #CA8C82",
"}. c #C99489",
"|. c #D89888",
" X c #E08F81",
".X c #E69987",
"XX c #EC9A84",
"oX c #F19984",
"OX c #F39C84",
"+X c #D5A884",
"@X c #DAB681",
"#X c #DDB38C",
"$X c #C9A291",
"%X c #EAA58A",
"&X c #F2A185",
"*X c #F4A58B",
"=X c #F5AA8D",
"-X c #E6B889",
";X c #F2BC88",
":X c #E9A694",
">X c #F3AC95",
",X c #E7BC94",
"<X c #F7B499",
"1X c #F5B39C",
"2X c #CAB2AA",
"3X c #E3B3A4",
"4X c #F7B8A2",
"5X c #EAC78E",
"6X c #F3C687",
"7X c #EDC699",
"8X c #F1C795",
"9X c #F9D69A",
"0X c #D3D3B5",
"qX c #E7C9A5",
"wX c #F3CCA2",
"eX c #F8D7A5",
"rX c #EDD7B0",
"tX c #FAE6A8",
"yX c #F0E9B7",
"uX c #FAECB5",
"iX c #86B7CA",
"pX c #B8B5C6",
"aX c #C8BDD3",
"sX c #8DC5D0",
"dX c #87CBD5",
"fX c #84D2DE",
"gX c #8CD3DC",
"hX c #96D4DA",
"jX c #B2D4CE",
"kX c #A6D7D7",
"lX c #81D4E0",
"zX c #9DD5E3",
"xX c #D4D1D0",
"cX c #E7D1C9",
"vX c #E7D7DC",
"bX c #C6E1CF",
"nX c #EAE5C8",
"mX c #DFD8E7",
"MX c #E9DBE4",
"NX c #EBE1E8",
"BX c #F2E7EB",
"VX c #F9F2F4",
/* pixels */
"T.T.T.T.T.T.T.T.T.T.T.T.T.T.T.T.T.T.T.T.T.T.T.hXkXjXkXfXgXjXkXT.T.T.T.lXlXlXT.T.T.T.T.T.T.T.T.T.T.T.T.T.T.T.T.T.T.T.T.T.T.T.T.T.",
"T.T.T.T.T.T.T.T.T.T.T.T.T.T.T.T.T.T.T.T.T.T.lX,X#X,XwXrXqXwXrXbXhXgXlXlXT.lXT.T.T.T.T.T.T.T.T.T.T.T.T.T.T.T.T.T.T.T.T.T.T.T.T.T.",
"T.T.T.T.T.T.T.T.T.T.T.T.T.T.T.T.T.T.T.T.T.T.kX,X+X,X#XwX,X,X7X7XwXeXrXjXhXlXT.T.T.T.T.T.T.T.T.T.T.T.T.T.T.T.T.T.T.T.T.T.T.T.T.T.",
"T.T.T.T.T.T.T.T.T.T.T.T.T.T.T.T.T.T.T.T.T.hXwX,X,X7X+XwX,XM.-Xs.,X8XeXtXeXwXxXlXT.T.T.T.lXT.T.T.T.T.T.T.T.T.T.T.T.T.T.T.T.T.T.T.",
"T.T.T.T.T.T.T.T.T.T.T.T.T.T.T.T.T.T.T.T.].#X,X,X7X#X+XwX,XM.,X7.+X,X,XeXeX9XeXeXxXhXlXlXlXlXT.T.T.T.T.T.T.T.T.T.T.T.T.T.T.T.T.T.",
"T.T.T.T.T.T.T.T.T.T.T.T.T.T.T.T.T.T.T.].s.+XM.-X#Xs.#X#XwX+X7X5.+X+X-X7XeX8XeX9XeXuXnXkXlXT.T.T.T.T.T.T.T.T.T.T.T.T.T.T.T.T.T.T.",
"T.T.T.T.T.T.T.T.T.T.T.T.T.T.T.T.T.T.dX7.s.7.s.+Xs.s.+X+X7XM.7XU ,Xs.#X-XwX-Xs.eX9XeXuXuXnXhXT.T.T.T.T.T.T.T.T.T.T.T.T.T.T.T.T.T.",
"T.T.T.T.T.T.T.T.T.T.T.T.T.T.T.T.T.T.!.5.s.4.s.7.5.5.+Xs.#X#X+XU #X+X5.#X5X-XH 7XeX9XtXuXuXnXlXT.T.T.T.T.T.T.T.T.T.T.T.T.T.T.T.T.",
"T.T.T.T.T.T.T.T.T.T.T.T.T.T.T.T.T.dX4.4.5.Q 7.4.7.Q 7.5.s.-X5.o.m.+Xv +XN.M.; M.9X6X9XtXuXtXyXhXT.T.T.T.T.T.T.T.T.T.T.T.T.T.T.T.",
"T.T.T.T.T.T.T.T.T.T.T.T.T.T.T.T.T.`.U 4.Q U 4.U [ [ 5.4.r.N.1.4.5.r.h +Xm.r.* r.8X6X;X9XtXtXtXeXkXT.T.T.T.T.T.T.T.T.T.T.T.T.T.T.",
"T.T.T.T.T.T.T.T.T.T.T.T.T.T.T.T.T.Q.U U U H U U H U 4.Q 5.r.1.4.2.Y J M.r.U * m.C.C.n.5X6X9XuX9X5XkXT.T.T.T.T.T.T.T.T.T.T.T.T.T.",
"T.T.T.T.T.T.T.T.T.T.T.T.T.T.T.T.T.4.H H H 8 H U H H o.Q 1.5.5.U 5.j Q 5.r.; U m.n.n.t.n.;X5XtX5X@XuXfXT.T.T.T.T.T.T.T.T.T.T.T.T.",
"T.T.T.T.T.T.T.T.T.T.T.T.T.T.T.T.T.3.H ; ; ; ; v U 8 U Q U 1.1.Y 2.j 2.! 1.K 5.2.0.8.n.0.C.n.9Xr.9XtXbXT.T.T.T.T.T.T.T.T.T.T.T.T.",
"T.T.T.T.T.T.T.T.T.T.T.T.T.T.T.T.T.3.h * & + # & ; 8 ; H H J J J K J 1.Y K K l Y Y <.8.0.n.n.6XN.tXtXuXlXT.T.T.T.T.T.T.T.T.T.T.T.",
"T.T.T.T.T.T.T.T.T.T.T.T.T.T.T.T.T.3.; + + + + # # & = * ; ; h h h j J j h g j l k <.l 0.<.n.C.6X9XtXuXlXT.T.T.T.T.T.T.T.T.T.T.T.",
"T.T.T.T.T.T.T.T.T.T.T.T.T.T.T.T.fX[ ; + + 8 n N N q 6 = & & * * - k Q Q 5.5.r.8.Y ! l z <.9.B.6X6XtXbXT.T.T.T.T.T.T.T.T.T.T.T.T.",
"T.T.T.T.T.T.T.T.T.T.T.T.T.T.T.T.sXU * $ v P _ ] ] ] ) ) n 9 8 H #.|.%X:X>X1X1X1X%Xc.8.l l 8.n.C.9X0XlXT.T.T.T.T.T.T.T.T.T.T.T.T.",
"T.T.T.T.T.T.T.T.T.T.T.T.T.T.T.T.`.J & h ` _ ] ] @.@.@.#.Q.{.|.+X:X:X:X>X1X4X4X4X1X*XoX8.l <.t.C.8XhXT.T.T.T.T.T.T.T.T.T.T.T.T.T.",
"T.T.T.T.T.T.T.T.T.T.T.T.T.T.T.T.`.H &  .] ] ] @.#.6.y.{.|.|.:X:X:X:X>X1X4X4X4X4X1X>X&Xc.8.<.9.n.6XrXlXT.T.T.T.T.T.T.T.T.T.T.T.T.",
"T.T.T.T.T.T.T.T.T.T.T.T.T.T.T.T.`.8 ;  .] +.@.@.#.#.y.y.|.|.:X:X:X:X>X>X1X4X4X4X1X>X*XoXc.8.9.C.6X9XjXT.T.T.T.T.T.T.T.T.T.T.T.T.",
"T.T.T.T.T.T.T.T.T.T.T.T.T.T.T.T.W.; v  .] ] ] I L I R #.y.|.:X:X.X|.%X:X>X1X1X1X1X>X*XoX&Xh.8.8.n.;XrXT.T.T.T.T.T.T.T.T.T.T.T.T.",
"T.T.T.T.T.T.T.T.T.T.T.T.T.T.T.T.3.= I  .P v 9 9 8 v L o.#.{.|.:X|.R R q.d.%X1X1X1X>X=X&XoXc.8.n.t.t.5XT.T.T.T.T.T.T.T.T.T.T.T.T.",
"T.T.T.T.T.T.T.T.T.T.T.T.T.T.T.T.[ & o.H 9 M P P P A _ @.#.{.|.|.y.I b I R ..5.|.%X>X=X&XoXXX2.8.B.C.8XT.T.T.T.T.T.T.T.T.T.T.T.T.",
"T.T.T.T.T.T.T.T.T.T.T.T.T.T.T.T.[ - ] n P ` I I P _ ` ] +.#.{.|.y.o.E O.#.q.q.#.&.d.=X*X&XoXq.<.0.6X7XY.T.T.T.T.T.T.T.T.T.T.T.T.",
"T.T.T.T.T.T.T.T.T.T.T.T.T.T.T.T.3.; C C C M M M M B A _ ] #.{.|.y.O.O.#.&.y.y.d.d.q.i.=X*XoXq.0.8.C.qXT.T.T.T.T.T.T.T.T.T.T.T.T.",
"T.T.T.T.T.T.T.T.T.T.T.T.T.T.T.T.E.v S v x 6 6 7 n n N ) ] #.{.|.y... .R R E W &.i..Xq.d.=X&Xi.<.V.B.qXT.T.T.T.T.T.T.T.T.T.T.T.T.",
"T.T.T.T.T.T.T.T.T.T.T.T.T.T.T.T.`.v C 6 % @ @ @ 4 6 n B ] #.|..Xy...C c 7 6 6 v R &.d.i.&X*Xd.! V.C.0XT.T.T.T.T.T.T.T.T.T.T.T.T.",
"T.T.T.T.T.T.T.T.T.T.T.T.T.T.T.T.`.L v $ % o   3 3 5 7 B ] 6.|..Xa.O.v - @ O O 5 % x $.h.&X=Xd.2.V.6XkXT.T.T.T.T.T.T.T.T.T.T.T.T.",
"T.T.T.T.T.T.T.T.T.T.T.T.T.T.T.T.`.I v % d o   o d f 7 B ] {.:X%Xz.q.R 3 o   3 ).'.= g $.x.*Xh.8.C.,XgXT.T.T.T.T.T.T.T.T.T.T.T.T.",
"T.T.T.T.T.T.T.T.T.T.T.T.T.T.T.T.3.I V 6 f 1 o o E.f 7 B @.|.1X>XXXd.W 1 o   o ).VXQ.- W l.&Xc.t.;X.XfXT.T.T.T.T.T.T.T.T.T.T.T.T.",
"T.T.T.T.T.T.T.T.T.T.T.T.T.T.T.T.] o.I C ) d 3 f } w n B o..X1X=X&X%Xy.d 2 1 1 NXBXcXR W h.oXc.t.%X%.).T.T.T.T.T.T.T.T.T.T.T.T.T.",
"T.T.T.T.T.T.T.T.T.T.T.T.T.T.T.lX`  . .R S I  . . .` A A ..XX>X*X*X=X%Xy.] [ 2X3X3X.Xx.h.l.b.c.V.=Xb.a.T.T.T.T.T.T.T.T.T.T.T.T.T.",
"T.T.T.T.T.T.T.T.T.T.T.T.T.T.T.T._ A ( S G R ...... .S A &.XX*X*X*X*X*X&XXXXXXXXXb.oXoXb.k.b.c.%Xd.x.g.lXlXlXT.T.T.T.T.T.T.T.T.T.",
"T.T.T.T.T.T.T.T.T.T.T.T.T.T.T.T.} S G S S G W W W R S S %.b.oXoX*X*X*X*XoXoXoXoXoXoXb.l.l.l.oXO.b i. XlXlXlXT.T.T.T.T.T.T.T.T.T.",
"T.T.T.T.T.T.T.T.T.T.T.T.T.T.T.T.W.S F Z Z G R R E S A F -.b.oXoXoX*X*XoXoXoXoXXXb.b.l.f.g.l.oX&.R i.$XT.T.T.T.T.T.T.T.T.T.T.T.T.",
"T.T.T.T.T.T.T.T.T.T.T.T.T.T.T.T.sXG F Z V S G G G A C F =.k.oXoXoXoXoXoXXXXXk.k.k.g.f.>.f.l.oXc.z.k.sXT.T.T.T.T.T.T.T.T.T.T.T.T.",
"T.T.T.T.T.T.T.T.T.T.T.T.T.T.T.T.fX] F Z V Z S S S A A V R %.h.oXoXXXXXx.k.k.k.g.g.>.>.>.f.l.b.XXoX$XlXT.T.T.T.T.T.T.T.T.T.T.T.T.",
"T.T.T.T.T.T.T.T.T.T.T.T.T.T.T.T.T./.F V V V S S A A 7 7 V S b E a.x.x.k.k.g.g.g.,.>.>.>.f.l.b.x.k.dXT.T.T.T.T.T.T.T.T.T.T.T.T.T.",
"T.T.T.T.T.T.T.T.T.T.T.T.T.T.T.T.T.dXF V V V A A A ^ N q N B M C q.XXXXk.g.h.,.>.>.-.-.f.f.l.b.k.].T.T.T.T.T.T.T.T.T.T.T.T.T.T.T.",
"T.T.T.T.T.T.T.T.T.T.T.T.T.T.T.T.T.T.F V m m A A A ^ B B `  .#.a.XXXXXXj.h.h.,.-.-.-.-.>.f.b.f.$XT.T.T.T.T.T.T.T.T.T.T.T.T.T.T.T.",
"T.T.T.T.T.T.T.T.T.T.T.T.T.T.T.T.T.T.I C m m A A ^ ^ ` o.y.y.d..X.XoXXXj.i.i.=.-.=.=.-.f.f.%XfXT.T.T.T.T.T.T.T.T.T.T.T.T.T.T.T.T.",
"T.T.T.T.T.T.T.T.T.T.T.T.T.T.T.T.T.T.I C m m A A ^ ^ /  .O.;.;.a. X.XXXj.i.-.-.=.=.=.=.f.l.2XT.T.T.T.T.T.T.T.T.T.T.T.T.T.T.T.T.T.",
"T.T.T.T.T.T.T.T.T.T.T.T.T.T.T.T.T.T.] S m m B B 7 q N ~ N N N A S o.O.&.i.-.=.%.%.=.=.f.l.pXT.T.T.T.T.T.T.T.T.T.T.T.T.T.T.T.T.T.",
"T.T.T.T.T.T.T.T.T.T.T.T.T.T.T.T.T.T.E.S V m B A q 0 0 a { { { J.J.L.#.y.-.-.=.%.%.%.-.e.h.fXT.T.T.T.T.T.T.T.T.T.T.T.T.T.T.T.T.T.",
"T.T.T.T.T.T.T.T.T.T.T.T.T.T.T.T.T.T.`.S C m B A ^ N S  ...&.:.:. XXXXXz.i.*.%.%.%.%.-.e.$XT.T.T.T.T.T.T.T.T.T.T.T.T.T.T.T.T.T.lX",
"T.T.T.T.T.T.T.T.T.T.T.T.T.T.T.T.T.T.Y._ C M B A A B B ^ /  . ...;.y.z.a.i.-.%.%.%.%.%.=.sXT.T.T.T.T.T.T.T.T.T.T.T.T.T.T.T.T.T.T.",
"T.T.T.T.T.T.T.T.T.T.T.T.T.T.T.T.T.T.T.W.C C C A A ^ ~ ~ ~ ^  .O.y.a.z.a.i.*.%.%.%.$.$.Q.T.T.T.T.T.T.T.T.T.T.T.T.T.T.T.T.T.T.T.T.",
"T.T.T.T.T.T.T.T.T.T.T.T.T.T.T.T.T.T.T.Y.) C M A A _ ` @.@.#.;.y.a.z.j.p.w.*.&.&.$.W W sXT.T.T.T.T.T.T.T.T.T.T.T.T.T.T.T.T.T.T.T.",
"T.T.T.T.T.T.T.T.T.T.T.T.T.T.T.T.T.T.T.T.sXB C A A _  .O.;.y.a. X X Xj.i.-.%.$.W E D *.fXT.T.T.T.T.T.T.T.T.T.T.T.T.T.T.T.T.T.T.T.",
"T.T.T.T.T.T.T.T.T.T.T.T.T.T.T.T.T.T.T.T.T.W.C C A P  .O.;.y.a.d.z.j.p.-.%.$.W F b W +XT.T.fXT.T.T.T.T.T.T.T.T.T.T.T.T.T.T.T.T.T.",
"T.T.T.T.T.T.T.T.T.T.T.T.T.T.T.T.T.T.T.T.T.W.V V B B `  ...&.y.i.p.p.w.%.W R b b R w.2XT.T.T.T.T.T.T.T.T.T.T.T.T.T.T.T.T.T.T.T.T.",
"T.T.T.T.T.T.T.T.T.T.T.T.T.T.T.T.T.T.T.T.T.W.m c m n m m S R ..O.&.&.O.E b x x F &.h.2XT.T.T.T.T.T.T.T.T.T.T.T.T.T.T.T.T.T.T.T.T.",
"T.T.T.T.T.T.T.T.T.T.T.T.T.T.T.T.T.T.T.T.T.W.m c 7 7 7 7 c c m C R F v - - x R &.i.b.}.Y.lXT.lXlXT.T.T.T.T.T.T.T.T.T.T.T.lXlXT.lX",
"T.T.T.T.T.T.T.T.T.T.T.T.T.T.T.T.T.T.T.T.U.) m c 7 6 5 5 4 5 5 5 5 4 = 6 m E &.i.h.b.o.Z.T.T.T.lXT.T.T.T.T.T.T.T.T.T.T.T.lXlXT.lX",
"T.T.T.T.T.T.T.T.T.T.T.T.T.T.T.T.T.T.T.T.d q m n c 7 6 5 4 4 4 % = 6 m R ..&.w.p.h.x.o.s gXT.lXlXT.T.T.T.T.T.T.T.T.T.T.T.T.T.lXlX",
"T.T.T.T.T.T.T.T.T.T.T.T.T.T.T.T.T.T.T.U.: n M n n c 7 6 5 5 5 6 v S E O.*.-.i.p.h.x.O.s pXgXlXlXT.T.T.T.T.T.T.T.T.T.T.T.T.T.lXlX",
"T.T.T.T.T.T.T.T.T.T.T.T.T.T.T.T.T.T.T.P.: w M n n 9 9 7 7 7 7 v R W &.*.w.i.p.p.j.x.I K.pXmXsXfXlXT.T.T.lXT.U.I.I.I.iXiXiXsXzXzX",
"T.T.T.T.T.T.T.T.T.T.T.T.T.T.T.T.Y.U.iXA.O 6 M n n n 9 9 7 9 C R W &.*.w.p.p.a.h.h.p.w ^.[.NX[./.^.^.R.H.S.F.H.K.~./._.pXaXxXmXNX",
"fXiXiX`.P.P.A.p p y y y y y e u p A.~.s O % n n n n n q 9 n C R O.&.q.i.p.p.a.h.h.W H.^._.NX[.^.^.R.H.F.G.H.K.R.^.^.pXMXNXBXBXBX",
"_.(./.^.^.~.R.G.A.u e r r r r r u K.G.e . @ q n n n n 9 9 c C R W &.q.i.p.a.j.h.w.4 H./._.BX).R.K.s s S.F.H.K.K.R.R._.vXvXNXBXBX",
"(.(./.^.~.~.~.G.p u y e > > : : : ^.A.> . X 4 q n n n q 7 n m I E O.*.i.i.p.d.p.b , p R.pXBXD.F.K.H.D.F.H.H.H.H.K.K.).vXvXvXNXBX",
"_.(././.~.~.R.A.y y t t r e < > > ~.y > . X % 7 n n n n q q n C R O.&.q.i.p.p.&., r u s xXxXH.).'.E.S.D.S.D.H.F.F.H.).vXvXvXvXMX",
"_._.)./.^.~.G.i y y y r e r e e A.A.< > : X @ 6 n n n n n n n C R ..O.*.q.i.i.6 , r u s [.2X'.'.'.^.f S.S.D.F.S.F.S.H.[.[._.[.[.",
"K.K.~.^.^.^.A.y y y y r e e e i A.p > > : O @ = 7 v m m m m M C R ..O.&.q.w.R , r r u F.^.).'.'.'.).S.f S.F.S.s i r u G.H.K.K.K."
};
