/* XPM */
static char *exit[] = {
/* columns rows colors chars-per-pixel */
"64 64 215 2 ",
"   c #1A1A1A",
".  c #3A110C",
"X  c #332912",
"o  c #372C13",
"O  c #3E3216",
"+  c #2C2310",
"@  c #2A2A2A",
"#  c #343434",
"$  c #3B3B3B",
"%  c #49050A",
"&  c #5A010B",
"*  c #54090C",
"=  c #561813",
"-  c #49170F",
";  c #660A0E",
":  c #6A040D",
">  c #74010D",
",  c #7B020E",
"<  c #6B0712",
"1  c #780915",
"2  c #671316",
"3  c #6B1016",
"4  c #482212",
"5  c #592414",
"6  c #4B3C1A",
"7  c #453718",
"8  c #523117",
"9  c #5A3018",
"0  c #5C3D1C",
"q  c #6A1B25",
"w  c #4E2D2E",
"e  c #68292D",
"r  c #612616",
"t  c #53421C",
"y  c #5B491F",
"u  c #58451D",
"i  c #5F4D24",
"p  c #5E5337",
"a  c #665122",
"s  c #6D5725",
"d  c #6C542D",
"f  c #7B632A",
"g  c #484848",
"h  c #545454",
"j  c #5B5B5B",
"k  c #575759",
"l  c #584F4F",
"z  c #6F554E",
"x  c #6C624A",
"c  c #62605B",
"v  c #6A6558",
"b  c #73715F",
"n  c #4D5E62",
"m  c #56676B",
"M  c #546D73",
"N  c #547378",
"B  c #4F6F74",
"V  c #6C6D6D",
"C  c #636564",
"Z  c #796A68",
"A  c #777163",
"S  c #76736B",
"D  c #677779",
"F  c #737373",
"G  c #7C7A73",
"H  c #7B7C7B",
"J  c #797874",
"K  c #696F70",
"L  c #6B635B",
"P  c #8A010F",
"I  c #84010F",
"U  c #8C0110",
"Y  c #840613",
"T  c #930111",
"R  c #9B0112",
"E  c #A40112",
"W  c #AC0113",
"Q  c #BC0015",
"!  c #B40014",
"~  c #C30015",
"^  c #CA0016",
"/  c #856A2D",
"(  c #88765B",
")  c #866868",
"_  c #728477",
"`  c #AF8C3D",
"'  c #B89C58",
"]  c #B0934E",
"[  c #BCA05E",
"{  c #908E76",
"}  c #BEA363",
"|  c #BAA76D",
" . c #A6A878",
".. c #B8AB7A",
"X. c #AEA670",
"o. c #AC9C6C",
"O. c #C1A86B",
"+. c #C4AD74",
"@. c #C5AF78",
"#. c #C6B17A",
"$. c #C9B27D",
"%. c #517A82",
"&. c #797F80",
"*. c #53848B",
"=. c #5A8B93",
"-. c #5C939A",
";. c #7C8181",
":. c #6D928C",
">. c #79A097",
",. c #5E98A1",
"<. c #619BA4",
"1. c #6BADB7",
"2. c #6FADB3",
"3. c #75BBC4",
"4. c #7BC9D5",
"5. c #7ED1DE",
"6. c #77C2CE",
"7. c #7FD4E1",
"8. c #838483",
"9. c #8D8D8C",
"0. c #878887",
"q. c #939493",
"w. c #9C9C9C",
"e. c #93908E",
"r. c #9DB18E",
"t. c #9CB494",
"y. c #98B79B",
"u. c #92A78E",
"i. c #A6AD83",
"p. c #B8AB83",
"a. c #AAB289",
"s. c #B4B58C",
"d. c #B9B488",
"f. c #A7B897",
"g. c #B8BB95",
"h. c #A6A298",
"j. c #8BB6A7",
"k. c #95BAA4",
"l. c #93BEAB",
"z. c #9BBCA4",
"x. c #8FADA7",
"c. c #A4A4A4",
"v. c #ACADAC",
"b. c #A7A8A7",
"n. c #A8B6A9",
"m. c #B3B4B3",
"M. c #BBBCBB",
"N. c #B1B0AD",
"B. c #A39C8B",
"V. c #CBB682",
"C. c #CEBB8B",
"Z. c #C8B787",
"A. c #D0BD8F",
"S. c #C4BA95",
"D. c #D1BE91",
"F. c #C7BDA3",
"G. c #BCC09E",
"H. c #8FC2B6",
"J. c #8DC5BC",
"K. c #91C1B2",
"L. c #97C4B6",
"P. c #95C0AE",
"I. c #BAC8B6",
"U. c #ADC5AE",
"Y. c #D3C195",
"T. c #D5C59C",
"R. c #C8C29C",
"E. c #C9C7A7",
"W. c #D6C7A0",
"Q. c #D9CAA5",
"!. c #DBCDAB",
"~. c #D4CBA9",
"^. c #DDD0AF",
"/. c #DED2B2",
"(. c #DAD5BA",
"). c #CACEBC",
"_. c #E0D4B6",
"`. c #E2D6BA",
"'. c #E3D9BD",
"]. c #8BC7C1",
"[. c #8AC8C5",
"{. c #87CBCC",
"}. c #86CED2",
"|. c #85D0D7",
" X c #82D2DC",
".X c #80D4E0",
"XX c #C3C4C4",
"oX c #CACBCA",
"OX c #D8D4C7",
"+X c #D2D3D2",
"@X c #DBDCDB",
"#X c #DBD9D2",
"$X c #D1CFC7",
"%X c #E5DCC3",
"&X c #E6DEC8",
"*X c #DFE0DF",
"=X c #E9E2CC",
"-X c #ECE5D2",
";X c #EFE9DA",
":X c #ECE7D7",
">X c #F0ECDD",
",X c #E3E4E3",
"<X c #EBECEB",
"1X c #E7E8E7",
"2X c #F2EEE2",
"3X c #EFF0EF",
"4X c #F4F1E6",
"5X c #F6F4EB",
"6X c #F8F6EF",
"7X c #F3F4F3",
"8X c #FAF9F4",
"9X c #FDFEFD",
"0X c #F8F7F2",
"qX c #EFF0F0",
"wX c #DFE0E0",
/* pixels */
"7.7.7.7.7.7.7.7.7.7.7.7.7.7.7.7.7.7.7.7.7.7..X7.}. X7.7.7.7.7.7.].z.i.f. X7.7.7.7.7.7.7.7.7.7.7.7.7.7.7.7.7.7.7.7.7.7.7.7.7.7.7.",
"7.7.7.7.7.7.7.7.7.7.7.7.7.7.7.7.7.7.7.7.7.7. Xk.d.r.K.}.7.7.|.}.[.Q.T.'.`.E.l.7.7.7.[. X7.7.7.7.7.7.7.7.7.7.7.7.7.7.7.7.7.7.7.7.",
"7.7.7.7.7.7.7.7.7.7.7.7.7.7.7.7.7.7.7.7.7. Xg.=XQ._.=X_.s.y.J.+.T.Q.=X-X_.T._.t.7.l./.s.7.7.7.7.7.7.7.7.7.7.7.7.7.7.7.7.7.7.7.7.",
"7.7.7.7.7.7.7.7.7.7.7.7.7.7.7.7.l.S.K.7.7.f.0X`.!.'.%X`.5Xa.{.a.T.0X9X'.Q.C.' %Xf. .C.p.7.7.7.7.7.7.7.7.7.7.7.7.7.7.7.7.7.7.7.7.",
"7.7.7.7.7.7.7.7.7.7.7.7.7.7.7.7.s.9X..f.E.;X>XY.$.Y.2X_.!.G.J.L.(.W.Q.'.'.C.#.-X-X=X^.E. X7.[.H.7.7.7.7.7.7.7.7.7.7.7.7.7.7.7.7.",
"7.7.7.7.7.7.7.7.7.7.7.7.7.t.k.7.l.$._.5X'.C.} ] C.C.Q.2X(.~.' [.{.R.-X-XV.T.`.!.O.C.5X6XG.{.l.!.U. X7.7.7.7.7.7.7.7.7.7.7.7.7.7.",
"7.7.7.7.7.7.7.7.7.7..X4.x.p.u.2.o.$Xp.S...S.p.F.p.$XE.S.u.3.3.2.3.3.{ F.).S.$XS.#Xo.F...$XF.u.S.F.a.3.3.5.7.7.7.7.7.7.7.7.7.7.7.",
"7.7.7.7.7.7.7.7.7.7..Xh P P P P U P P P P P P P P P P P P P P P P P P P P P P P P U P P P P P P P P P > ,.7.7.7.7.7.7.7.7.7.7.7.",
"7.7.7.7.7.7.7.7.|.l.[.p ^ ^ ^ ^ ^ ^ ^ ^ ^ ^ ^ ^ ^ ^ ^ ^ ^ ^ ^ ^ ^ ^ ^ ^ ^ ^ ^ ^ ^ ^ ^ ^ ^ ^ ^ ^ ^ ^ ^ W _ {.k.7.7..X7.7.7.7.7.7.",
"7.7.7.7.7.7.7.7.}.[ Z.) ^ ^ ^ ^ ^ ^ ^ ^ ^ ^ ^ ^ ^ ^ ^ ^ ^ ^ ^ ^ ^ ^ ^ ^ ^ ^ ^ ^ ^ ^ ^ ^ ^ ^ ^ ^ ^ ^ ^ W N.| | 7.7.7.7..X7.7.7.7.",
"7.7.7.7.7.7.7.7.k.4XQ.z ^ ^ ^ ^ ^ ^ ^ ^ ^ ^ ^ ^ ^ ^ ^ ^ ^ ^ ^ ^ ^ ^ ^ ^ ^ ^ ^ ^ ^ ^ ^ ^ ^ ^ ^ ^ ^ ^ ^ W { '.%X[.7.7.7.7.7.7.7.7.",
"7.7.7.7.7.7.7. XZ.4X$.z ^ ^ ^ ^ ^ ^ ^ ^ ^ ^ ^ ^ ^ ^ ^ ^ ^ ^ ^ ^ ^ ^ ^ ^ ^ ^ ^ ^ ^ ^ ^ ^ ^ ^ ^ ^ ^ ^ ^ W B.$.0Xp.7.7.7.7.7.7.7.7.",
"7.7.7.7.7.].y.y.=XC.0X) ^ ^ ^ ^ ^ ^ ^ ^ ^ ^ ^ ^ ^ ^ ^ ^ ^ ^ ^ ^ ^ ^ ^ ^ ^ ^ ^ ^ ^ ^ ^ ^ ^ ^ ^ ^ ^ ^ ^ W m.>XQ.!.k.t.{.7.7.7.7.7.",
"7.7.7.7.7.].%X/.2XW.-Xd ^ ^ ^ W I 2 q q : T Q U : 3 3 > T ~ ^ ^ ^ ^ ! I ; q q < U Q T : 3 3 : U Q ^ ^ W ( 4XY.%X2XE.}.7.7.7.7.7.",
"7.7.7.7.7.7.f./.%XW.} ) ^ ^ ^ = o 9.9X9X9XXXg +X9X9X9Xl o > ^ ^ ^ ^ ; O J 9X9X9XoXg oX7X9X9XC O : ^ ^ W h.} D._.=Xl.7.7.7.7.7.7.",
"7.7.7.7.7.7.l._.} ` '.) ^ W : 4 y 9.9X9X9X9XH 9X9X9X9Xx t . > ~ ! : - y G 9X9X9X9XH 9X9X9X9XA y . > Q W h.Y.] } /.}.7.7.7.7.7.7.",
"7.7.7. XH.|..Xy.>XC.} z ^ : f / y 8.<X9X8X<XH 9X9X9X9Xx u / t W I s / y G c.e.v.9XH 9X9.,X9XA y / a T W { ' /.`.J.7.].K..X7.7.7.",
"7.7.7.s.-Xd..XI.-Xd.~.) ^ ~ E 5 y H # 9X,X9.F g w.v.9Xx t & E ^ ^ E = y G q.oXh 9XH 9Xh 7X9XA y * E ^ W h.E.p.5XU.H.A.!.t.7.7.7.",
"7.{.k.S.9X$. .2XU. X}.l ^ ^ ^ 5 y 9.V +Xc.<XH g 7X9X9Xx t > ^ ^ ^ ^ ; y G q.oXH 9XH 9Xh 7X9XA y ; ^ ^ W _ |. XE.&X..A.>X .t. X.X",
"7.{.C.a.f.d.5X'.f.A.Z.j ^ ^ ^ 5 y 9.XX8.w.9XH g w.M.9Xx t > ^ ^ ^ ^ ; y G q.V q.9XH 9Xh 7X9XA y ; ^ ^ W _ A.d.g.2X>X .t.s.S. X7.",
"7.7.E.(. Xy.9X=X$.:X/.c ^ ^ ^ = y 9.9Xg m.9XH g 7X9X9Xx t > ^ ^ ^ ^ ; y G q.oXh 7XH 9Xh 7X9XA i ; ^ ^ W b ;XQ.Y.>X;XH.[.2Xf.7.7.",
"7. X/.-X].G.>X_.-X .l.m ^ ^ ^ 5 y 9.9XH 7X9XH $ N.m.9Xx t > ^ ^ ^ ^ ; y G 8.m.XXF F 9Xg @X9XA y ; ^ ^ W -.t...2XQ.5Xz.y.9XI.7..X",
"7.k.-XW...=XY.!.T.[.7.m ^ Q T 4 y 9.9X9X9X9XF ,X@X<X9Xx t & R ^ ~ T - y G 9X9X9X9XH 9X9X9X9XA y * R ~ E <.7.z.!./.T.!.C./.Q.J.7.",
" X} C.%X-XV.O.=X%XH.7.%.~ : f / y 9.9X9X9X9XH 9X9X9X9Xx t f t E , s / y G 9X9X9X9XH 9X9X9X9XA y / a U U 3.7.n.%X%X+.+.9X!.$.a.7.",
"7.E.T.%XQ.4X_.Y.4Xy.K.-.! ! , 4 i j c.w.c.M.V M.v.v.v.p t % , ~ Q , - y l c.w.c.M.V XXv.v.v.l y . > ~ > 5.k.f.0XY.`.=X'.Y.=Xf.7.",
"7.(.9X$.^.9X#.%XY./.f.1.R ^ ^ 5 o t 6 6 7 + 6 X 7 6 6 i O > ^ ^ ^ ^ ; o u 6 6 6 + t + 7 6 6 y 7 ; ^ ^ e 7.g.Q.!.T.Q.9XY.T.9XI.7.",
"7.%X2X!.0X0X&X#.5X!.r.j., ^ ^ 1 9 9 9 9 9 . t X 8 8 8 8 8 R ^ ^ ^ ^ Y 9 9 9 9 9 . y . 8 8 8 8 8 U ^ ^ l y. .-X>X} 6X0X-X'.6X).7.",
"l.(.-XC.0X-XT.5X2XT.9Xf.q ^ ^ ^ ^ ^ ^ ^ ^ ^ ~ ^ ^ ^ ^ ^ ^ ^ ^ ^ ^ ^ ^ ^ ^ ^ ^ ^ ^ Q ^ ^ ^ ^ ^ ^ ^ ^ ~ N R.9XW.;X5XQ.=X9X} 9XE.k.",
"%X!.0XY.=XQ.5X!.6X%X~. Xl ^ ^ ^ ^ ^ ^ ^ ^ ^ ^ ^ ^ ^ ^ ^ ^ ^ ^ ^ ^ ^ ^ ^ ^ ^ ^ ^ ^ ^ ^ ^ ^ ^ ^ ^ ^ ^ R 1.{.`./.0X/.;XD.0XD.9XQ.%X",
"(.%X>X^.T.Q.W.-X/.!.l.7.%.~ ^ ^ ^ ^ ^ ^ ^ ^ ^ ^ ^ ^ ^ ^ ^ ^ ^ ^ ^ ^ ^ ^ ^ ^ ^ ^ ^ ^ ^ ^ ^ ^ ^ ^ ^ ^ 1 5.7.t.Q.-X!.%X+.&X^._.5Xg.",
"z.5XA.T.C.$.O.4X' k.7.7.1.T ^ ^ ^ ^ ^ ^ ^ ^ ^ ^ ^ ^ ^ ^ ^ ^ ^ ^ ^ ^ ^ ^ ^ ^ ^ ^ ^ ^ ^ ^ ^ ^ ^ ^ ^ ^ l 7.7..Xt.} 5X' #.Q.V.Q.%X].",
" XS.5XO.$.] O.] C.f..X7.7.q ^ ^ ^ ^ ^ ^ ^ ^ ^ ^ ^ ^ ^ ^ ^ ^ ^ ^ ^ ^ ^ ^ ^ ^ ^ ^ ^ ^ ^ ^ ^ ^ ^ ^ ^ ! =.7.7.[.d.} ' ' +.} $.4Xf.7.",
"7.|.U.../.T.V.V.9X'.[.7.7.k ^ ^ ^ ^ ^ ^ ^ ^ ^ ; % w Z Z Z z q Y > e z Z Z z % & E ^ ^ ^ ^ ^ ^ ^ ^ , 4.7.7.i.5X;XO.+.&XT.s.L..X7.",
"H.y. Xi.0XT.%X..W.d. X7.7.<.E ^ ^ ^ ^ ^ ^ ^ Q o t c 9X9X9X9X9XC @X9X9X9X9X+Xt O & ^ ^ ^ ^ ^ ^ ^ ^ l 7.7.7.H.#.Z.Z./.%X=Xk.].t.].",
"!.5X . .;X4Xa. X X.X7.7.7.5.q ^ ^ ^ ^ ^ ! = 9 6 a c 9X9X9X9X9XV 7X9X9X9X9X+Xa 7 4 r > ^ ^ ^ ^ ^ W -.7.7.7.7. X X}.S.6X!.i.+.5X| ",
"!.5X+./.;X=XJ.k. X Xy.7.7.7.m ~ ^ ^ ^ ^ W 4 0 y a c XXq.8.w.9XV ,X9X*Xw.q.+Xa 7 t 0 ; ^ ^ ^ ^ ^ q 5.7.7.}.y.7.}.l.t.0X%X/.O.5X..",
"H.y.}.a.5X=Xz.E.f.f.R.7.7.7.3.Y ^ ^ ^ ^ ^ ^ Q o a c 7X1XH 7X9Xh 9.9XH +X<X+Xa O & ^ ^ ^ ^ ^ ^ Q N 7.7.7.}.T.P.d.I. .0X=Xy.J.t.{.",
"7.{.f.K.W._.s.OXY.%X(. XK.7.7.l ^ ^ ^ ^ ^ ^ Q o a c 9X1XH 9X3X  $ 9XXX@ +X+Xa O & ^ ^ ^ ^ ^ ^ 1 4.7.}.J.J.>XW.%X).+.;Xs.l.a..X7.",
" X X~.-X+.T.!.>XQ.5X-X..Q. X7.1.T ^ ^ ^ ^ ^ Q o a c 9X1XH 9Xw.# # oX9Xm.# +Xa O & ^ ^ ^ ^ ^ ~ m 7.7.H.%X| 4X4X`./.-XC.+.5Xg. X X",
"f.f.f.9X-XQ.2X%X!.'./.-X!.|.7.7.l ~ ^ ^ ^ ^ Q o a c 9X,XF 9X8.V v.V XX9Xj +Xa O & ^ ^ ^ ^ ^ 1 6.7.7.K.=X%X'.=X!.Q.9XC.0X4Xt.s.P.",
"U.5XQ.2XQ.`.`.T.!.A.Y.!.'.|.7.7.1.Y ^ ^ ^ ^ Q o a c 9X,Xv.@Xv.V ,X9.w.c.oX+Xa O & ^ ^ ^ ^ Q N 7.7.7.l.>X/.$.!.V.'._.Y.=X`.=X6XJ.",
"[.>X-X'.>X`.D.9XD.[ '.A.%X|.7.7.7.m Q ^ Q ; ; O a c 9X9X9X9X9XV 5X9X9X9X9X+Xa O . ; T ^ ^ q 5.7.7.7.K.6XV.W.O.!.6XT.T.9XQ.4X(. X",
"7.g.%XD.9X!.V.-X2X] `.Y.'. XJ.S.s.4.q ^ E 7 s s a c 9X9X9X9X9XV 5X9X9X9X9X+Xa 7 f s * ^ R <.J.S.s. XK.5XO.'.' 9XT./.Q.9XO.-Xz.7.",
" Xi.T.$.^.Y.!.$.9X$.%XS G N a.9X'.[.<.T ^ Q E o a i A b b A J $ { G S A S c / O % W ~ ~ k 7.t.9X%Xj.M H { -XC.2XO.=XC.T.D.C.t..X",
"}.f.%X9X6XW.V.Q.=X&XV M.M.v.] #.f..X7.m Q ^ Q o 6 y y y y y + / O u y y y y y 6 & ^ ^ q 4.7.[.g.#.p 7Xq.M.8.;X^.T.V.'.9X9XE.y. X",
"7.7.[.(.;X/.2XD.OXV <XoXF j x _ 7.7.7.5.w ~ ^ , ; ; ; ; ; ; ; 5 * ; ; ; ; ; ; ; W ^ Y 1.7.7.7.4.( 6 F H 9XoXH -XC.5XW.5XE. X7.7.",
"7.7.7.l.5X-XW.1XV 7X9X9X,XoX8.j m 6.7. Xj.q ^ ^ ^ ^ ^ ^ ^ ^ ^ ^ ^ ^ ^ ^ ^ ^ ^ ^ ^ R =.].7.7.,.K F m.@X7X9X9X+XH 7XV.5X%X{.7.7.7.",
"7.7.7. Xg.4X$XF 7X9X9X9X<XF 7XM.V M 7.[.} >.1 ^ ^ ^ ^ ^ ^ ^ ^ ^ ^ ^ ^ ^ ^ ^ ^ ^ W M i.p.7.5.V h ,XM.8.9X9X9X9X@XF 2X&XP.7.7.7.7.",
"7.7.7.7. Xu.S 9X9X9X9X9XF 7Xv.9.w.m y.K._.Z.>.1 ^ ^ ^ ^ ^ ^ ^ ^ ^ ^ ^ ^ ^ ^ ^ W k k.'.d.J.l.m ;.V *XXXw.9X9X9X9X,Xx H.7.7.7.7.7.",
"7.7.7.7.7.N 7X9X9X9X9X;.@XXXq.m.*.4.E.C.&X=X} { 1 ^ ^ ^ ^ ^ ^ ^ ^ ^ ^ ^ ^ ^ W n g.$.>XC.%Xz.5.n 7XF <Xw.XX9X9X9X9Xc.3.7.7.7.7.7.",
"7.7.7.7.7.N 7X9X9X9Xw.I.@X;.9X7Xw.9.v R.5X/.'.-X>.3 ^ ^ ^ ^ ^ ^ ^ ^ ^ ^ ^ R M U.5X`.`.Q.OXj 8.v.9X7XV 7XH ,X9X9X9Xq.3.7.7.7.7.7.",
"7.7.7.7.7.3.&.9X9XM.n 9.F 9X9X9X<X@X<XS w.A.Q.!.~.2.e ~ ^ ^ ^ ^ ^ ^ ^ ^ Y =.z.Q.-X} -X{ H 7X9X9X9X9X<XV m M 9X9X@XN 7.7.7.7.7.7.",
"7.7.7.7.7.7.1.K S x [.h 7X9X9X9Xm.g qX9XoXC { /.D.~.x.0 E ^ ^ ^ ^ ^ ~ q { y.-X' 2X( V oX9X@X9X9X9X9X9X+XN x.x S N 5.7.7.7.7.7.7.",
"7.7.7.7.7.7.{.o.H.z.M ,X9X9X9X7X# ,X9XXXm.9XXXS x OXV.Q.e.1 ~ ^ ^ T k j.-X$.).p H XX9Xv.H j @ +X9X9X9X9XM.:.z.k.o..X7.7.7.7.7.7.",
"7.7.7.7.7.7. Xl.i.H.;.9X9X9X9XH h M.9Xj w.9X9X7X<Xc.G b { w.w U = N <.c G J c.<X9X9X8.H 9X9XXX@ 9X9X9X9X9XM y.r.J.7.7.7.7.7.7.7.",
"7.7.7.7.7.7.7.7..X[.D 9X9X9X+X# 9XXXV g 9X9XM.8.9X7X9X9X<XoXm.c.b.m.oX<X9X9X,Xw.V ,X7X# ,X9X9XF M.9X9X9X9XN ].7.7.7.7.7.7.7.7.7.",
"7.7.7.7.7.7.7.7.7.7.<.H @X7Xk M.9X9X# @X9X@Xh 9.9X9X@ 8.M.XXXX9X8X+XqXXX9X7XV c.m.V 9XM.h 9X9Xm.m.9X9X@XV 3.7.7.7.7.7.7.7.7.7.7.",
"7.7.7.7.7.7.7.7.7.7.7.4.*.K +X,X9X8.8.9X<XF w.w.9X@Xj <Xg +Xg 9X9XV 9X# @X9X*Xg 9XH 9X9Xj v.9X8.7XM.m =.4.7.7.7.7.7.7.7.7.7.7.7.",
"7.7.7.7.7.7.7.7.7.7.7.7.7.5.N v.<XC <X9XF v.h b.9Xc.9.XX8.9X@ 7XXXm.8XC C 9X9Xg 8.g <X9X,X@ 9.+XH =.7.7.7.7.7.7.7.7.7.7.7.7.7.7.",
"7.7.7.7.7.7.7.7.7.7.7.7.7.7.7.<.M oX7Xq.XX9XH m.9XV F j 9X9XF m.8.9X+XN.$ @X9Xw.e.XX$ c.<X+Xw.M 4.7.7.7.7.7.7.7.7.7.7.7.7.7.7.7.",
"7.7.7.7.7.7.7.7.7.7.7.7.7.7.7.7.5.-.D M.9X9XF m.9X$ 7Xg 7X9XXXC q.9Xc.q.w.j 9X3X# 1XqXXXw.M 1.7.7.7.7.7.7.7.7.7.7.7.7.7.7.7.7.7.",
"7.7.7.7.7.7.7.7.7.7.7.7.7.7.7.7.7.7.7.<.M 9.@X,X,Xj <Xq.q.9X9X  ,X9X8.9X9X$ N.7Xm.oX8.N 1.7.7.7.7.7.7.7.7.7.7.7.7.7.7.7.7.7.7.7.",
"7.7.7.7.7.7.7.7.7.7.7.7.7.7.7.7.7.7.7.7.7.4.*.M ;.m.,X9Xv.7X9XM.9X7Xw.<X9X@XN.;.M =.5.7.7.7.7.7.7.7.7.7.7.7.7.7.7.7.7.7.7.7.7.7.",
"7.7.7.7.7.7.7.7.7.7.7.7.7.7.7.7.7.7.7.7.7.7.7.7.5.1.*.N D D &.;.;.H D D N *.1.5.7.7.7.7.7.7.7.7.7.7.7.7.7.7.7.7.7.7.7.7.7.7.7.7."
};
