/* XPM */
static char *player_right1_resized[] = {
/* columns rows colors chars-per-pixel */
"64 64 239 2 ",
"   c #342E2E",
".  c #1D1B1E",
"X  c #4E3C3A",
"o  c #534037",
"O  c #393D43",
"+  c #213A51",
"@  c #3B414C",
"#  c #73554D",
"$  c #515B6B",
"%  c #686D76",
"&  c #B70E6B",
"*  c #AA226F",
"=  c #C41977",
"-  c #C82E7B",
";  c #B27A4C",
":  c #B7795B",
">  c #AE7458",
",  c #BA7965",
"<  c #AD796D",
"1  c #9E7F6C",
"2  c #C9786E",
"3  c #B88448",
"4  c #BF8754",
"5  c #BC9457",
"6  c #BE8164",
"7  c #BD886B",
"8  c #B28F75",
"9  c #B7A67E",
"0  c #C28D4B",
"q  c #CF9B47",
"w  c #C5924B",
"e  c #CD994A",
"r  c #C79348",
"t  c #D19E4B",
"y  c #C68C59",
"u  c #C59452",
"i  c #CC9C54",
"p  c #C9975D",
"a  c #CB9B5A",
"s  c #C69658",
"d  c #D09E51",
"f  c #D2A04E",
"g  c #CFA05C",
"h  c #CFA053",
"j  c #D4A454",
"k  c #D3A45B",
"l  c #D7A85A",
"z  c #D9AA5C",
"x  c #C68A6D",
"c  c #C68767",
"v  c #D48A68",
"b  c #CD9C63",
"n  c #C89968",
"m  c #D5976A",
"M  c #CA8B73",
"N  c #C99A78",
"B  c #D3987A",
"V  c #D78A7C",
"C  c #E5996E",
"Z  c #E89B6F",
"A  c #E89E73",
"S  c #CEA162",
"D  c #CAA46C",
"F  c #D1A562",
"G  c #D5A964",
"H  c #DBAE62",
"J  c #D5AA6A",
"K  c #D9AE6C",
"L  c #D6A46B",
"P  c #DEB165",
"I  c #DEB36A",
"U  c #C7A878",
"Y  c #D8A776",
"T  c #DDB472",
"R  c #DCB67B",
"E  c #E1B66C",
"W  c #E2B86E",
"Q  c #E4A77C",
"!  c #E4BC74",
"~  c #E4BD7A",
"^  c #E3B874",
"/  c #E7C17A",
"(  c #EAC47C",
")  c #E9C279",
"_  c #677B9C",
"`  c #C73A8A",
"'  c #8972A8",
"]  c #B370AB",
"[  c #A85E8D",
"{  c #C35491",
"}  c #D95A9A",
"|  c #D24C8B",
" . c #E6569C",
".. c #E64B96",
"X. c #D87391",
"o. c #E6718F",
"O. c #D777A7",
"+. c #CA7EB2",
"@. c #D46CA7",
"#. c #E769A7",
"$. c #E777AB",
"%. c #EF7EB5",
"&. c #4D87B8",
"*. c #7492B6",
"=. c #7FD4E1",
"-. c #8F8C92",
";. c #B29191",
":. c #AEAC8B",
">. c #B6A986",
",. c #ABB49B",
"<. c #B6B397",
"1. c #8E97B1",
"2. c #AF8BB6",
"3. c #9EBCAD",
"4. c #98ABAF",
"5. c #A7BAA8",
"6. c #B5B6B6",
"7. c #A8B2B1",
"8. c #D6918F",
"9. c #E99697",
"0. c #E48D90",
"q. c #D9A687",
"w. c #DDB981",
"e. c #D7B587",
"r. c #CABA94",
"t. c #D7B796",
"y. c #CBAB8B",
"u. c #E3AB84",
"i. c #E8A984",
"p. c #E4AC8A",
"a. c #E9AE8B",
"s. c #E5A682",
"d. c #E6B18C",
"f. c #EAB28D",
"g. c #E1BD86",
"h. c #EAAB94",
"j. c #ECB594",
"k. c #EEB896",
"l. c #EDB398",
"z. c #EEBB9A",
"x. c #E4B599",
"c. c #F0BE9E",
"v. c #C88AB8",
"b. c #D987B4",
"n. c #CA96BA",
"m. c #D393AE",
"M. c #ED96A3",
"N. c #E98AB8",
"B. c #F187BA",
"V. c #ED98BC",
"C. c #D8BAA7",
"Z. c #CDB0B1",
"A. c #E9A6A9",
"S. c #E6BBA5",
"D. c #EAB1B1",
"F. c #98C3BB",
"G. c #A5C3B8",
"H. c #B3C3AD",
"J. c #DCC69A",
"K. c #E6C384",
"L. c #EBC682",
"P. c #EDC984",
"I. c #E9C689",
"U. c #EDCC8B",
"Y. c #E6C48B",
"T. c #F1CF8B",
"R. c #F1CD86",
"E. c #F2D18D",
"W. c #EBCA97",
"Q. c #EFD199",
"!. c #F3D493",
"~. c #F3D69A",
"^. c #F6D99B",
"/. c #F8DB9C",
"(. c #F7D896",
"). c #F1CF9F",
"_. c #EAC6A6",
"`. c #F0C2A3",
"'. c #F1C6A9",
"]. c #F1C9AD",
"[. c #ECD1A6",
"{. c #F7DBA3",
"}. c #F9DEA3",
"|. c #F5DCAB",
" X c #F8DFAB",
".X c #F1D6A7",
"XX c #F1CCB2",
"oX c #F4D7B7",
"OX c #ECD2B7",
"+X c #FBE2AC",
"@X c #FAE0A6",
"#X c #FAE3B3",
"$X c #FDE8B4",
"%X c #FAE5BC",
"&X c #F9E4BD",
"*X c #DCC1A3",
"=X c #86ADCC",
"-X c #95AFCB",
";X c #B4B5C7",
":X c #B1BDD5",
">X c #ADAECA",
",X c #AB96C6",
"<X c #D09AC2",
"1X c #EB9DC3",
"2X c #F198C1",
"3X c #CBA7C8",
"4X c #C3BACA",
"5X c #D2B6D1",
"6X c #E3A9C6",
"7X c #E5B8CC",
"8X c #EEB4CE",
"9X c #96C9C7",
"0X c #8ACDDC",
"qX c #94CDD4",
"wX c #84D3DD",
"eX c #8BD2DC",
"rX c #8FD1D6",
"tX c #8ECDD0",
"yX c #A0C8C3",
"uX c #B8C2D8",
"iX c #A4C6DB",
"pX c #82D4E0",
"aX c #8FCCE1",
"sX c #A5C1E0",
"dX c #D2C7D4",
"fX c #EAC6D8",
"gX c #F2C4D8",
"hX c #EBD0CF",
"jX c #FAE6C3",
"kX c #FBE9C4",
"lX c #FBEBCC",
"zX c #F4E3C7",
"xX c #FBEDD3",
"cX c #FAEDD8",
"vX c #FDF0DC",
"bX c #EFE1C7",
"nX c #D2D3E2",
"mX c #F2D1E1",
"MX c #FDF3E3",
/* pixels */
"=.=.=.=.=.=.=.=.=.=.=.=.=.=.=.=.=.=.=.=.=.=.=.=.=.=.=.=.=.=.=.qXdXv.eX=.=.=.=.=.=.=.=.=.=.=.=.=.=.=.=.=.=.=.=.=.=.=.=.=.=.=.=.=.",
"=.=.=.=.=.=.=.=.=.=.=.=.=.=.=.=.=.=.=.=.=.=.=.=.=.=.=.=.=.=.pX3X8X#.-X=.=.=.=.=.=.=.=.=.=.=.=.=.=.=.=.=.=.=.=.=.=.=.=.=.=.=.=.=.",
"=.=.=.=.=.=.=.=.=.=.=.=.=.=.=.=.=.=.=.=.=.=.=.=.=.=.=.=.=.pX<X@.$.` >XeX=.=.=.=.=.=.=.=.=.=.=.=.=.=.=.=.=.=.=.=.=.=.=.=.=.=.=.=.",
"=.=.=.=.=.=.=.=.=.=.=.=.=.=.=.=.=.=.=.=.=.=.=.=.=.=.=.=.pXiX@.3X` v.#.2.=.=.=.=.=.=.=.=.=.=.=.=.=.=.=.=.=.=.=.=.=.=.=.=.=.=.=.=.",
"=.=.=.=.=.=.=.=.=.=.=.=.=.=.=.=.=.=.=.=.=.=.=.=.pX=.wXG.6.eX:XaX-X-X>XsXaXpX=.pX=.=.=.=.=.=.=.=.=.=.=.=.=.=.=.=.=.=.=.=.=.=.=.=.",
"=.=.=.=.=.=.=.=.=.=.=.=.=.=.=.=.=.=.=.=.=.=.=.=.tX5.e.t.iXdX8X} -X5XN.| -X-XwXpX=.=.=.=.=.=.=.=.=.=.=.=.=.=.=.=.=.=.=.=.=.=.=.=.",
"=.=.=.=.=.=.=.=.=.=.=.=.=.=.=.=.=.=.=.=.=.=.eX>.q.m.bXdX] 6XmX#.& b.....] 4.U qXpX=.=.=.=.=.=.=.=.=.=.=.=.=.=.=.=.=.=.=.=.=.=.=.",
"=.=.=.=.=.=.=.=.=.=.=.=.=.=.=.=.=.=.=.=.=.F.n Y.$.N.fXdXv.b.fXmX6X` = N.] 1.;Xb.;XwX=.=.=.=.=.=.=.=.=.=.=.=.=.=.=.=.=.=.=.=.=.=.",
"=.=.=.=.=.=.=.=.=.=.=.=.=.=.=.=.=.=.=.pX,.S I.m.$.8X7XuX<XV.7XfXO.& = O.' =XdX8XH.H.eX=.=.=.pX=.=.=.=.=.=.=.=.=.=.=.=.=.=.=.=.=.",
"=.=.=.=.=.=.=.=.=.=.=.=.=.=.=.=.=.=.eX>.K P.f.m.2XgX@.:X4X .N.6X& & ` ` *.,X2X8XO.*Xw.3.pXpXpX=.=.=.=.=.=.=.=.=.=.=.=.=.=.=.=.=.",
"=.=.=.=.=.=.=.=.=.=.=.=.=.=.=.=.=.pX>.I ~.C.1X7XO.O.2.4.dX3XgX| & { 6X' -X2.mXgX{ A.0.g.>.wXpX=.=.=.=.=.=.=.=.=.=.=.=.=.=.=.=.=.",
"=.=.=.=.=.=.=.=.=.=.=.=.=.=.=.=.=.,.J S.gX5XC.dX} * _ nX,XnX5XV.| b.' -X;X1.$.O.@.h.9.fX8.5.=.=.=.=.=.=.=.=.=.=.=.=.=.=.=.=.=.=.",
"=.=.=.=.=.=.=.=.=.=.=.=.=.=.=.=.9Xp ) 0.N.N.:X>Xb.1.7.;Xb.2.4XmXO.1.uX6X3X:X' { _.;XC.V.$.[ tX=.=.=.=.=.=.=.=.=.=.=.=.=.=.=.=.=.",
"=.=.=.=.=.=.=.=.=.=.=.=.=.=.=.pXN W u.X.{ 5X3XdX;.6.8 X.$.1X9.fX4XZ.D.N.v.-.1.;XO.;X4X7X#.;.>.=.=.=.=.=.=.=.=.=.=.=.=.=.=.=.=.=.",
"=.=.=.=.=.=.=.=.=.=.=.=.=.=.=.6.g ! o.b.5X4X+.$.6Xb.O.h.I.C.n.@.O.b.D.OXM.@.;.;X;X<XZ.|.n.m.e.rX=.=.=.=.=.=.=.=.=.=.=.=.=.=.=.=.",
"=.=.=.=.=.=.=.=.=.=.=.=.=.=.pXn W K.Z.;.@.+.8.Z.m.C.Q.^.{.{.^.^.^.{. X!.P.x.O.@.+.2.v.dXn.M.[.,.=.=.=.=.=.=.=.=.=.=.=.=.=.=.=.=.",
"=.=.=.=.=.=.=.=.=.=.=.=.=.pX9Xg ~ :.5 j N U ) !.!.!.!.{. X%XlXxXlX X~.E.!.E.~.[.r.w.v.@.n.%X@XD wX=.=.=.=.=.=.=.=.=.=.=.=.=.=.=.",
"=.=.=.=.=.=.=.=.=.=.=.=.=.=.>.I 8 i j j W P.P.R.!.~.{.#XkXxXMXvXlX%X#X^.E.^.{.E.G ! {.W.;.hX@XR F.=.=.=.=.=.=.=.=.=.=.=.=.=.=.=.",
"=.=.=.=.=.=.=.=.=.=.=.=.=.eXS G j j l ! P.E.!.!.^.^.{.#XjXxXMXvXkX X!.E.^. X^.L.b T ~.(.g.<.OX!.:.=.=.=.=.=.=.=.=.=.=.=.=.=.=.=.",
"=.=.=.=.=.=.=.=.=.=.=.=.=.G.i f j z ! ) ) ) P.!.!.~.^. X#X%X%X X^.^.^. X#X{.E.b Q Y I. XK..Xr./.D pX=.=.=.=.=.=.=.=.=.=.=.=.=.=.",
"=.=.=.=.=.=.=.=.=.=.=.=.=.<.t f H ! ! ) ) ) P.P.E.!.^.{.@X@X@X{.{.#X%X%X{.E.S Y Q L ! #X{.e.jXY.T qX=.=.=.=.=.=.=.=.=.=.=.=.=.=.",
"=.=.=.=.=.=.=.=.=.=.=.=.eXb f P W ! I K P.!.^.@X$X$X$X#X@X@X#X%XlXjX#X^.R.b Y u.s.m z oX#XK.OXW.T G.=.=.=.=.=.=.=.=.=.=.=.=.=.=.",
"=.=.=.=.=.=.=.=.=.=.=.=.H.i E W I G K.{.{.@X@X@X$X%XlXlXxXxXxXlX%X X/.R p Q i.i.s.Q g I.jX@XY xXY 9 =.=.=.=.=.=.=.=.=.=.=.=.=.=.",
"=.=.=.=.=.=.=.=.=.=.=.pXy.W H G ~ ^./.@X#X%XlXxXvXMXMXMXvXlX%X@X^.~ p Y i.i.i.a.j.f.u z jXkX{.e.xXn wX=.=.=.=.=.=.=.=.=.=.=.=.=.",
"=.=.=.=.=.=.=.=.=.=.=.yXG k ~ !./.@X%XkXkXkXkXkXkXkXkX%X$X@XW.J s Y a.a.a.f.j.k.k.j.m j Q.lX%XY._.bX,.=.=.=.=.=.=.=.=.=.=.=.=.=.",
"=.=.=.=.=.=.=.=.=.=.eXU T E.^. X#X#X@X{.{.@X@X@X@X$X$X).R p m u.f.f.f.f.j.k.k.k.k.k.u.u H lXxX#XR bX_.3.=.=.=.=.=.=.=.=.=.=.=.=.",
"=.=.=.=.=.=.=.=.=.eXr.P.!.{. X{./.(././.{.{.@X@X~.R s s u.j.j.j.j.j.k.k.j.Y b s p m p.b k Y.vXxX{.J zXe.9X=.=.=.=.=.=.=.=.=.=.=.",
"=.=.=.=.=.=.=.=.eXr.E.^.{.{.!.E.!.L.I././.~.w.b m p.u.b m k.k.k.k.k.k.u.y m u.j.k.j.Y Y u H &XMXlX~.J zXU tX=.=.=.=.=.=.=.=.=.=.",
"=.=.=.=.=.=.=.pXr.E.^.{.^.E.E.L.K L.(.I.J p L Q Q f.k.k.j.k.k.k.k.k.k.j.j.k.f.f.d.k.k.j.m k ! xXMXlXI.J jXU wX=.=.=.=.=.=.=.=.=.",
"=.=.=.=.=.=.=.yXP.^.{.!.E.R.J T E.P.G b u.d.M , , , M p.k.k.k.k.k.j.k.k.j.q.2 2 M 8.d.k.Y r P K.vXvXjX~ w.|.:.=.=.=.=.=.=.=.=.=.",
"=.=.=.=.=.=.wXJ.!.{.E.E.~ G P.E.J 4 u.j.q.< #   O   # 6 a.k.k.k.k.k.k.j.V > # X o # < q.i.v p ! I.xXxX%XJ Q.g.F.=.=.=.=.=.=.=.=.",
"=.=.=.=.=.=.G.R.^.E.E.J T E.) u r y k.j.q.X $ &.+ . >X$ 7 j.k.k.k.k.j.8.# $ . _ _ $ X < i.s.0 G ! I.lXlX XS  XU pX=.=.=.=.=.=.=.",
"=.=.=.=.=.pXr.!.!.P.S L.~.T 0 e q y k.f.q.8 % =X1.O *.iXZ.h.k.k.k.k.h.;.uX=XO @ &.6.# q.i.s.0 u I ) W.kXkXY.w.Y.9X=.=.=.=.=.=.=.",
"=.=.=.=.=.eX~ E.L.S ~.{.K r e e z n j.f.k.j.t.8 -.4.-.t.j.j.k.k.k.k.j._.XX1.1.1.*.1 k.k.i.B 0 f p / L.~.jX#XG ~.5.=.=.=.=.=.=.=.",
"=.=.=.=.=.qX) L.G oX XK r e q ! L.0 p.f.j.k.k.k.k.j.j.j.k.k.k.k.k.f.k.k.k.j.j.j.k.k.k.k.i.B q t z g P.P.oX%XI.T H.=.=.=.=.=.=.=.",
"=.=.=.=.=.9X/ S &X%XT r e j I.!.q p B f.k.k.k.k.k.k.k.k.k.k.k.k.j.p.k.k.k.k.k.k.k.k.k.k.i.c e t f I J P.!.#X{.G G.=.=.=.=.=.=.=.",
"=.=.=.=.=.7.p  XxXL.r e j ~.^.j g H 8.| h.k.k.k.k.k.k.k.j.j.k.k.j.p.k.k.k.j.k.k.k.k.j.k.i.y t t t W G ) P.+X^.T 9X=.=.=.=.=.=.=.",
"=.=.=.=.pXy.I.xX{.p q j ~.{.P i P m #.$.0.k.j.k.k.k.k.j.k.k.k.k.k.d.k.k.k.j.k.k.k.k.k.fX} m j t f j ~ J P.{.~.R 9X=.=.=.=.=.=.=.",
"=.=.=.=.9XT %XjXT r t !.{.L.q H W W X.D.f.k.k.k.k.k.j.j.k.k.k.k.k.j.k.k.k.k.k.k.k.k.9.#.$.v z t f j ) S P.^.!.T 9X=.=.=.=.=.=.=.",
"=.=.=.=.5.!.lX~.u q P.{.~.d k W I ^ | { q.`.k.k.k.j.j.j.k.d.p.a.a.a.d.k.k.k.k.k.k.k.j.- 8.H H f j j ! G P.^.I.J tX=.=.=.=.=.=.=.",
"=.=.=.=.r. X%XI r I {.{.I i W W K o.$.- M '.`.k.k.k.k.k.k.k.j.j.j.j.j.k.k.k.k.k.k.j.o.- 2 P H j j j ) G ) ~.P.D wX=.=.=.=.=.=.=.",
"=.=.=.pXw.%X{.u j ~.{.I.i H ! G ) o.V. .2 x.`.c.k.k.k.k.k.k.k.j.k.k.k.k.k.k.k.k.j.f.| } X.P P j j j ) G L.R.P.>.=.=.=.=.=.=.=.=.",
"=.=.=.eX~ %X~ r ~ {.{.P i ! W K R.XXgX$.y M ].`.k.k.i.9.M.A.A.M.M.D.A.9.9.a.k.j.j.0. .N.} P P j j z P.G P.P.T 3.=.=.=.=.=.=.=.=.",
"=.=.=.tX~ #XG i ~.{.!.j G ! G ) (.{.f.K q b S.].`.k.k.| v.1XB.B.%.B.2XN.| j.j.j.f.B X.gXA.W I j j P P.S P.P.D pX=.=.=.=.=.=.=.=.",
"pX=.=.9X~ {.u I {.{.! i ! ! G !.{.{.) z z ! x XX].`.k.h...{ 6XfXfX7XZ.$.h.k.j.f.u.y j ).W P P j j ) ! K P.T 9X=.=.=.=.=.=.=.=.=.",
"=.=.=.qX! I.u / {.{.z g ) I I @X@X{.P.f ! ! K N XX'.`.k.9. . .#.B.1X1Xh.k.j.f.a.c q ! I.P P H j z P.G ) ! ,.=.=.=.=.=.=.=.=.=.=.",
"=.=.=.pXw.J j W. X!.z G ) G I.$X$X!.) j ! ! T , q.XX'.`.k.h.o.o.o.0.h.k.j.f.a.x r l !.~ I P z j W ~ G G s wX=.=.=.=.=.=.=.=.=.=.",
"=.=.=.=.r.u z ~. XI.l J ) p ~.@X@XP.! P ! ! W c v q.].`.k.k.k.k.k.k.k.j.j.f.x 0 t P.I.W W I j j ! G k u ,.=.=.=.=.=.=.=.=.=.=.=.",
"=.=.=.=.<.u z  X#XK.z K L.i !.{.^.P.W W ! ! ! c Q m M S.`.k.k.k.k.k.k.j.p.c ; r ! !./ W W P j j ) i i p tX=.=.=.=.=.=.=.=.=.=.=.",
"=.=.=.=.5.i H #X#X~ H J ) i E./.E.P.P ! ! ! ! 6 f.Z C c B k.k.k.k.k.j.B : ; 3 j E.!.W W W H j j T j i U =.=.=.=.=.=.=.=.=.=.=.=.",
"=.=.=.=.5.k H #X%X~ P G ) p P.E.P.) z ! ! L c x M x c v C c x M M x c m > 3 r ) !.I.W W W z j j G k k <.pXpX=.=.=.=.=.=.=.=.=.=.",
"=.=.=.=.5.H P oXjX~ I k ) p ) E.( ) z H c q.k.k.k.k.j.B 2 C Z Z Z Z Z c ; 3 j R.!.P.W W W l j j g k k 5.pX=.=.=.=.=.=.=.=.=.=.=.",
"=.=.=.=.5.I P  XjXK.W H T p ) E.) ! p : p.k.k.k.k.k.k.k.p., C Z Z Z C > 3 r P E.E.P.W W W j j z k i k 5.=.=.=.=.=.=.=.=.=.=.=.=.",
"=.=.=.=.5.~ W .XlXI.W W G G I E.( J 6 j.k.k.k.`.`.`.`.c.k.q.c Z Z Z v ; 3 e ! E.E.I.W W I j j z z i l :.=.=.=.=.=.=.=.=.=.=.=.=.",
"=.=.=.=.G.K.W Q.lXW.! ! I G G R.^ 6 j.k.k.k.`.].XXXX].`.k.k.6 C Z Z : ; r f ! R.E.E.! W P j l z z z p b wX=.=.=.=.=.=.=.=.=.=.=.",
"=.=.=.pXyXY.! L.xX X! ! ! G p ! , j.k.k.k.`.'.XXoXoXXX'.`.k.B v A C > 3 e j ! P.E.E.P.! P j z z z z z k ,.=.=.=.=.=.=.=.=.=.=.=.",
"=.=.=.=.rXw.P.! xX&X! ! ! ! u : p.k.k.k.k.`.'.XXoXoXXX'.`.k.p.c i.v ; 3 q l ! ) R.E.E.) I l z z z z H P G G.=.=.=.=.=.=.=.=.=.=.",
"=.=.=.=.pXY !.! &XxX/ / / ) n B k.k.k.k.k.W.'.XXoXXXXX'.`.k.j.6 f.x ; 0 q j ! ! P.E.E.E.! z z z z H H P P L 9X=.=.=.=.=.=.=.=.=.",
"=.=.=.=.=.<.{.) ).MXI.) ) T 6 k.k.k.k.k.k.k.`.'.].].'.`.k.k.k.6 k.x 3 r q f ! ! ! P.E.E.I.! z z H H I ~ I I G 5.=.=.=.=.=.=.=.=.",
"=.=.=.=.=.9XI.!.) vXoX) ) 6 p.k.k.k.k.k.k.k.k.`.`.`.`.k.k.k.k.6 f.c 3 r q q ! ! ! ! ) I.E.E./ H H H P W [.[.! k 5.pX=.=.=.=.=.=.",
"=.=.=.=.=.wXe.{.L..XxX) Y x k.k.k.k.k.k.k.k.k.k.k.k.k.k.k.k.k.c p.x 3 3 e e H / ! ! I z I L.E.E.) P P P I I.jXW.G ,.=.=.=.=.=.=.",
"=.=.=.=.=.=.<.{.~.L.oX!.6 d.k.k.k.k.k.k.k.k.k.k.k.k.k.k.k.k.k.x p.B 3 3 e e t ! ~ ! ! ! P f z ! R.!.L.W W W ~ jX XG ,.=.=.=.=.=.",
"=.=.=.=.=.=.qXW.{.E.P.e.M k.k.k.k.k.k.k.k.k.k.k.k.k.k.k.k.k.k.x p.f.b 3 r e e j ! ~ ~ ! ! ! z t j K I.!.P.! W ~ &X XG 3.=.=.=.=.",
"=.=.=.=.=.=.pXg.{.{.R.6 f.k.k.k.k.k.k.k.k.k.k.k.k.k.k.k.k.k.k.M p.k.Y G 3 e e e H ~ ~ ! ! ! ! W j j i J I.!.P.! / %X Xb 9X=.=.=."
};
