/* XPM */
static char *d0d0a5661c2a4f62f26a104cb5cd3159vsAvTQKSscM9HPIY[] = {
/* columns rows colors chars-per-pixel */
"13 13 6 1 ",
"  c None",
". c #110A03",
"X c #0E353E",
"o c #156948",
"O c #59B32D",
"+ c #F0E1C9",
/* pixels */
"             ",
" ..........  ",
".OO+OOO+OOO. ",
".+OoOooOo+O. ",
"..ooO+oO.oO. ",
".O.oOoo.oO+. ",
".O.o+oO.ooO. ",
".X+XXooXooX. ",
".XooXo+XoX+. ",
".Xo+XXoX+oX. ",
".+XoXooXoXX. ",
".XXXX+XXXX+. ",
" ..........  "
};
