/* XPM */
static char *wall[] = {
/* columns rows colors chars-per-pixel */
"64 64 246 2 ",
"   c None",
".  c #025402",
"X  c #035C02",
"o  c #0C5C03",
"O  c #0B5C0B",
"+  c #095603",
"@  c #135E0C",
"#  c #115E03",
"$  c #145F13",
"%  c #026401",
"&  c #0B6403",
"*  c #026C01",
"=  c #0A6C03",
"-  c #0B630A",
";  c #0C6C0B",
":  c #076E0A",
">  c #136304",
",  c #126C03",
"<  c #14630B",
"1  c #146A0A",
"2  c #1B6805",
"3  c #027401",
"4  c #0B7402",
"5  c #027C01",
"6  c #0C7C03",
"7  c #0B730B",
"8  c #0A7A0B",
"9  c #077108",
"0  c #137404",
"q  c #1A7305",
"w  c #137B04",
"e  c #1B7C05",
"r  c #16770B",
"t  c #146412",
"y  c #1C6512",
"u  c #1A641A",
"i  c #176A16",
"p  c #157415",
"a  c #1C731D",
"s  c #167916",
"d  c #0F7412",
"f  c #226C09",
"g  c #257709",
"h  c #3B7F0C",
"j  c #226B1B",
"k  c #257819",
"l  c #1C6D27",
"z  c #1C7926",
"x  c #1D6D32",
"c  c #246C24",
"v  c #287728",
"b  c #357827",
"n  c #287935",
"m  c #357A36",
"M  c #417E33",
"N  c #307E46",
"B  c #028301",
"V  c #0B8302",
"C  c #038B01",
"Z  c #0B8B02",
"A  c #0A8B0A",
"S  c #0A830B",
"D  c #138403",
"F  c #1B8305",
"G  c #138C03",
"H  c #1B8C05",
"J  c #19850A",
"K  c #039201",
"L  c #0C9302",
"P  c #059A02",
"I  c #0C9A02",
"U  c #0D970D",
"Y  c #149303",
"T  c #1C9305",
"R  c #139B03",
"E  c #1B9B04",
"W  c #18990C",
"Q  c #178717",
"!  c #169315",
"~  c #238406",
"^  c #2B8307",
"/  c #238C05",
"(  c #2A8B06",
")  c #258309",
"_  c #2C8309",
"`  c #258C08",
"'  c #2B8C09",
"]  c #34850A",
"[  c #348C0A",
"{  c #3C8D0C",
"}  c #39890A",
"|  c #239305",
" . c #2B9406",
".. c #239A05",
"X. c #2C9B06",
"o. c #249509",
"O. c #2D9309",
"+. c #2C9B08",
"@. c #269C09",
"#. c #339406",
"$. c #339B07",
"%. c #34930A",
"&. c #3B940B",
"*. c #349B09",
"=. c #3B9C0B",
"-. c #3B9A06",
";. c #258817",
":. c #368612",
">. c #269718",
",. c #389A1A",
"<. c #1BA004",
"1. c #17A017",
"2. c #2BA106",
"3. c #28A207",
"4. c #34A109",
"5. c #3BA20B",
"6. c #37A709",
"7. c #30A112",
"8. c #1C8526",
"9. c #1E932E",
"0. c #258327",
"q. c #239625",
"w. c #399928",
"e. c #278239",
"r. c #368739",
"t. c #309638",
"y. c #28A125",
"u. c #37A82D",
"i. c #43930D",
"p. c #439C0C",
"a. c #4B9C0E",
"s. c #489A0A",
"d. c #4A8A19",
"f. c #4D9C11",
"g. c #479613",
"h. c #559A14",
"j. c #49920E",
"k. c #43A20C",
"l. c #4BA30E",
"z. c #4CA90E",
"x. c #48A608",
"c. c #52A40E",
"v. c #5AAA0A",
"b. c #56A90D",
"n. c #4DA311",
"m. c #4BA616",
"M. c #54A411",
"N. c #5AA513",
"B. c #54AA11",
"V. c #5BAA13",
"C. c #58A71C",
"Z. c #63AB14",
"A. c #6AAE15",
"S. c #67AA18",
"D. c #6AB118",
"F. c #73B31A",
"G. c #78B41A",
"H. c #6CAE14",
"J. c #478724",
"K. c #469525",
"L. c #549731",
"P. c #5CA62A",
"I. c #4FAB35",
"U. c #68B127",
"Y. c #77B636",
"T. c #70AF2B",
"R. c #2E8548",
"E. c #37884B",
"W. c #389747",
"Q. c #3A8B59",
"!. c #399556",
"~. c #2F9A48",
"^. c #3AA44A",
"/. c #3AA75B",
"(. c #2FA14E",
"). c #3BA762",
"_. c #3B9166",
"`. c #47965B",
"'. c #468A4F",
"]. c #44A75B",
"[. c #54AC49",
"{. c #6CB544",
"}. c #79BA48",
"|. c #69BA57",
" X c #73B354",
".X c #479769",
"XX c #579A69",
"oX c #489974",
"OX c #4C9973",
"+X c #49A778",
"@X c #4AB478",
"#X c #52AE6F",
"$X c #6EB26D",
"%X c #7CC377",
"&X c #81B81E",
"*X c #87BA24",
"=X c #88BC37",
"-X c #93C235",
";X c #82BB44",
":X c #87C566",
">X c #8BC872",
",X c #A1CD60",
"<X c #9BC750",
"1X c #56A888",
"2X c #55B489",
"3X c #5AAB95",
"4X c #5BB597",
"5X c #4FA988",
"6X c #64BB8A",
"7X c #63B39D",
"8X c #68B89B",
"9X c #62AD93",
"0X c #5EB8A3",
"qX c #5EAFA1",
"wX c #65B7A7",
"eX c #6ABDB3",
"rX c #71BDAE",
"tX c #4C9D80",
"yX c #77C389",
"uX c #79C49A",
"iX c #67C49F",
"pX c #68C6A9",
"aX c #6CC3B9",
"sX c #73C3BD",
"dX c #77CBBB",
"fX c #7FCBA7",
"gX c #5EC297",
"hX c #73C5C3",
"jX c #75CBCB",
"kX c #79CBCD",
"lX c #77CBC5",
"zX c #7BCED5",
"xX c #7BCFD8",
"cX c #7BD1D5",
"vX c #7DD2DC",
"bX c #79D0C7",
"nX c #7FD4E1",
"mX c #86CA8D",
"MX c #82CFBD",
"NX c #85D1BC",
"BX c #8BD0AB",
"VX c #83D2CB",
"CX c #87D1C2",
"ZX c #82D4D9",
"AX c #81CEC1",
"SX c #80D4E1",
/* pixels */
"nXnXnXnXnXnXnXnXSXSXSXSXSXSXnXnXnXnXSXSXSXSXSXSXSXSXSXnXSXSXSXSXnXnXnXnXnXnXnXnXVXZXSXnXnXnXnXnXnXnXnXnXnXnXnXnXnXnXnXnXnXnXnXnX",
"nXnXnXnXnXnXnXnX>XVXnXnXzXVX1XqXnXnXnXSXSXnXZXeXhX'.zXnXSXSXnXSXnXnX1XxXnXnXZXCXBX<X,XZXlXyXrXsXnXnXSXnXnXnXZXnXnXnXnXnXnXnXnXnX",
"nXnXnXnXnXnXVX%XyX:XnXbXP.XXhX@ nXnXjX.X9XsXeXXXy '.;XZXsX.XN kX3XnXXX.XSXSXvX X<X*XY.:XT.Y.Y.yXnXjX  SXBXBXNX>XnXnXnXNXvXnXnXnX",
"nXnXVXZXSXlXcX{.u.{.lXU.C.b 9Xf ].W.y J.CXvX.X1Xd.L.h.L.@ 2 h.uXkXE.$XJ.AXhXn r.Y.=X{ Z.p.S.&.2X@X    |.MX-XNX*XBX}.;X{.vXnXnXnX",
"nXSXMX{.kXVX].}.W #XI.z.C.  > c.  d.h *X-X>XN f L.T.{ h.f M.I.kX$Xf k A.G.S.d.lX%XP.M.$.5.X.D P m.@.0.   X}.Y.Y.Z.B.n.dXvXgX#X@X",
"nXaXkX.XL.uXY.o.@.= 2.$.o.,.{ i.S.h h.D.A.H.{ Z.V.{ i.] &.$.w.; 5.$.} d.G.A.-X|.C.o.l.H R Q A T >.U.:.  f.P.U.k.$.@.I.@Xy.U @XSX",
"nX[.;.R.g t.[.D ,.W K D g C.V.a.s.> Y p.h.a.c.5./ v  .D Y 6 D Y C &.m.a.A.z.V.@.2.z.O.K A U A >.%.D l.H | T T E W C K ! q.@XnXcX",
"kXhX:.4 1 Q ^.~ A U V V T %.c.G.] /  .p.$.T R A Y I L B 5 A H O.h.&.5 R 2.z.X.E 4.D C C C C V 4 p.6 6 ..w L P K B C J w.Q (.Q 5 ",
",.7 1 q 3 = 5 L L 5 C A V H } z.V.Z.Z.B.Y C K A C B 5 B B 3 F 6 n.c.L D C R E K C 5 C B 5 4 M.D 6 Y 5 5 C B K C B 5 =.5 5 8 * e.",
"  K.= , = % % B B 5 D V A X.R / | ..B K C C 5 B Y 3 * 5 O.4 e 0 5 %. .D R K K C 5 B 5 5 { w O.Y C C K D B 5 5 B 5 ( J Q 0.p z !.",
"a X % % * * % 4 D 5 S.w B K K ..Y D B 5 C B B 3 L * 6 5.( 3 3 ( D w L B B K B 5 5 * 3 3 6 M.~ N.3 2.Y B 3 3 * 5 3 6 3 * * : 4XnX",
"K A 3 * % % % % %.` a.n.B D n.X.C 3 3 * 3 5 * B B 3 E / % % 3 / Y B 5 B 5 B B 3 i.e * * * i.i.N.p.k.D A 3 B * 3 * % % % R.jXkXaX",
"  a s 1 2 % * % 6 f.Z.M.A B.%.5 B 3 B 5 * 3 % 5 5 B K 3 D | E C Y C 5 3 3 * V * h.G.e = & , c.a.x.D D $.V 3 % % % % % e.lX(.Q 3 ",
"jX8Xy   K.} > X ( ~ Z.s.$.X./  .B C / 3 % 3 3 X B C 5 C A O.^ 3 G.=.` * 3 0 ) } ^ G.l.w p.&.) $.X.B Y H 5 * 3 * 3 * * 1X8.p E.5X",
"nXeX1XM 2 h.] q F [ =.x.R Y $.V @.3 &.F ( 0 3 ` 5 5 C 6 B 5 &.B.Z.G.a.e M.g % g.p.Z.k.k.=.L C Y A C A V ` B f.* % % 1 t.8.p `.wX",
"nXnXlX{ { h &.e H R $...C Y 0 5 D D D Z./ v.M. .V $.~ r 5 3 A N.p.a.g.G._ % % 4 B.X.T ..D A K C B B O.6 Z.` M.i.g e %.} p +XSXnX",
"nX7XsXy O.X._ A 3 C L A B 6 * 5 5 F &.p.^ v.%.5 $.H f.p.3 C C D V.f.k.*Xi.D 4.c.E L I B C B B 5 B 3 6 f.( A.) A.M.n.p.n wXnXjXiX",
"nX5Xw D w K Y w V B C B 5 F 6 w 3 * ~ 4 4 w 4 C  .K B $.T D E ) ~ V.5.V.z.l.c.D & C $.C B 5 6 ` ( 3 3 0 0 M.l.l.5.=.r ~.u.1.@XvX",
"SXcX`.7 D K C A V B B B 3 5 } 6 ~ % % * 5 6 B C C | B 5 5.f.H z.( K l.%. .k.F 5 Y K | &.5 6 f.f.% & , = &.e 4.D <.L C A ! @XnXnX",
"nX`.a s 4 B 5 5 L 5 6 H l.( 4 D * 3 3 3 5 C B T 5 A C B 5 =.p./ c.C T $.2.T O.C C | } k.B M.N.0 e w &.&.$.A K K C B 5 A ~.0X@Xt.",
"nX4X0.r 7 3 5 5 C 3 | 5.( G.= 0 ] j.D B B 5 5 6 Y H K / D 5 %./  .<.I L C Y C 5 D  .Y A 5 D V e p.Z.i.I B C B C B 3 = B 5 3 9 s ",
"zXE.= o o # & B 5 5 R %.^ N.i.p.V.( B %.V 5 5 3 B A $.V | D 3 Y A B P A B B D V / 5 3 * 3 D $.k.l.@.B V 5.B 5 5 3 & 3 * p r.!.oX",
"nXnXE.* & % g } 5 C B 4 4.5.( l. .3 5 Y ..V 3 e * B V T 5 K B 5 Y 6 C C 3 H V A 5 5 5 5 5 D T E $.o.B.M.&XV.%.V i.4 * * ; i 5XnX",
"nX5XwXd 3 = 5 j.Y B 5 C D / F 5.n.V.z.T w $.3 R V D B C K C K 5 5 / 3 B 3 B 5 3 * * 3 5 B C B 5 N.| =.Z.a.p.w V.) % % * 8 5XnXnX",
"nXv ; < = 0 4 =.X.5 C D A L 4.l.=.&X/ ( * A H 5 C V V V 5 V B T 3 &.^ 5 3 4 ^ * % 3 B B 3 4 N.&.Z.=.C =.a.=.5. .* % 5 5 sXeXnXnX",
"eX3Xn * o 0 } ~ x.5 6 ..X.C K l.%.N.i.V | B.e 5 5 B 5 5 w B B V ( F p.* e M.e X * * V 6 * 6 D G.c.N.w i.k.F E 3 5 C B > c jXnXnX",
"5XW.p 3 % % F ( l.5 Y =.Y K C 5 N.} a.F c.( 3 D 3 A B / $.3 5 B T |  .w l.( * * 6 ( f.0 * H H $.V.i.$.5.| K B B V 5 < k d ).+XsX",
"nX#Xg.;.* * 3  .=.T D n.k.C B , e =.F 4.| Y C C C 6 O.w v.0 % = %. .6 | | 6 D | $.w 0 N.e ( $.w =.Y Y P o.C C D D 2 6 5 * ; !.kX",
"nXvXv %.g } , 3 c.D A Y l. .H H * | A L B L C C 5 * D [ &.| 5 ..( 3 K L 5 C V A 4 g 6 @.k.D X.I A K B B K o.V H 4 4 3 * k 9XSXnX",
"nX6XOXr / ] $.4 E V @.D 6 4.V Y L 5 C 5 C 6 $.6 5 5 B T ( D C H K ~ C C C 3 C 6 V E 5.B.Y K K C C 5 5 D B =.@.5 5 ` &.> !.jXvXnX",
"nX!.;.k g D C C B B 5 T B 3 C 3 C C B B F 5 4 $.6 3 % 3 D 5 C D B p.H B * e %.B A p.D G.g 0 D p...5 5 4 H H $.* { Z., 3 Q Q ,.lX",
"2X/.8 S < 4 B 5 B H B B K 5 * 3 5 C A 3  .~ * 5 $.%.C 5 B B 5 V H H 5.3 ] A.w 3 B H V.l.=.w M.| B B 3 5 A D ~ ~ c./ 3 w ] T.8XhX",
"wXW.5 3 3 3 3 / * h.( 5 B C F 3 * 5 B 6 w X.D } c.V 5 B 5 H 6 5 D D / e B.h.w V ` h.h.&.O.5.$.5 5 B C 3 % C 3 3.~ 0 &.c.i.& - eX",
"nXzX2X8 * % % e i.g S.% = a.%.3 * * 3 C B D T k.F * 6 | =.6 3 3 * K 5 X.( ^ V.N.Z.2 o %.w E 5 C C B 3 B 3 5 C K A | H g.> L.%X>X",
"nXrXv J.y % X X c.} a.= a.i., 5 % 3 5 3 C 5 <.H V  .l.%.5 5 = B * 5 C L Y X.p.l.^ v.^ =.@.T D 3 5 5 3 3 C B C B C 5 V v %.l.M.P.",
"nXvX4Xg h.w ~ X j.v.~ / X.~ = C K 5 B 4 5 C C V $.H Z.^ w O.%.( L 3 C B K H H a.5.Z.c.c.l.%.3 F * * 5 3 3 C B 5 & 5 , V W w.6XnX",
"nXzXE.q ] k.F %.^ z.D R H Y B B 6 5 ~ E 4 C B C g p.:.G.k.l.Z.a.D C D D 3 B C D x.-.T L  .4 q 0 3 5 * * * 5 C 4 * 3 B C y.@XdXnX",
"nX`.h.K., ) H V R X.K B L 6 5 3 F | D v.F 5 C %.D i.=.V.H l.p.= * B C ..T C K K Y | V A / %.F v.3 * * F 0 3 5 V 5 B B B ].vXnXcX",
"nXSX#X5.Y = A 3 B K B B 5 3 3 5 3 ~ ) a.5.l.X. .6 A l.X.2.$.0 3 B K B 3 ..H A C B C 5 B 5  .H c.0 * | %.6 * 3 3 H B 4   7XpX).pX",
"jX/.U A K C 5 B 3 B B 3 3 D 5 3 3 *  .( D 4.c.D | B Y T R D D C C 5 H 6 C L B B D H 5 3 3 * %.} w A D.0 0 3 5 V 3 3 q U q.S jXnX",
"SXpXI...C K 5 3 * 3 5 * 3 6 %.* 3 5 3 @.H V O.T D R s K C A D D * * B C B C 3 C B | ( 3 * * 3 H f.Y Z.&.V V l.O.B C K q.Q jXjX4X",
"nXSX4XA C B 5 3 3 * 3 3 * 3 V D 5 5 * 5 T D B L B B K V B D &.6 * 3 * B 5 B S E 6 3 D / D 5 % B V N.%.l.D M.&.5 B 5 5 Q 8X.X; % ",
"/.q.S 5 5 5 3 * 3 % = % ( ) 3 B 3 B C C C L B ( o.3 C Y w ~ /  .3 5 4 4 C H L %.x.V 5 A N.| 5 3 5 ( =./ $.%.= 3 B C 5 5 5 3 3 !.",
"SXdXP.q.5 3 * * 3 % ) g e G.C 5 J =.Y T B A Y D k.4 3 =.M.q 5 D A 5 B 5 C B =.F v.V B  .$.M./ H V 5 X.A E 5 B C C 3 3 0 0 i R.0X",
"nXnX|.o.Q 3 * % 3 3 * k.( Z.D H V. .B Z.o.L E A X.5 %.l.w F D w $.$.V K B B A $.-.6 Y p.6 w 5.D | A B K B C 5 B 4 3 5 D 5 s +XnX",
"nXnXbXu.5 * g ^ X 3 3 6 l.{ H z. .C 5 @.2.| =.E V D X.w * / l.$.3 C $.T C B 5 D F 3 A D | B A K 5 K 5 B B 6 6 D H 5 * z +XeXNXmX",
"nX>X[.,.5 3 3 a.&.* 6 3 T X.<.T C C C B O.D 5.$.B K B A T X.X.P A 5 V | Y A 4 = B 5 B 5 C K 3 3 3 5 C 5 w ( V B 6 w r `.|.U.}.nX",
"nXcX[.Q o.H 6 B z./ | T C I P 6 C B L @.F 5 C B C B C C A B p.3.6.k.l.k.D B B 5 B B B V C K L F 3 * B 5 D D 6 3 * * J 5.$.[.nXnX",
"nXnXuX  A 3 O.w = l.C C P P D A F D F H l.6 3 A k.H B 3 D D | 5.6 H Z.O.5 B 5 D 5 3 * - 0 q 3 l.V * 3 %.~ * * * * C Y 5.[.vX|.Z.",
"nXnXyXw.S 3 * | 5 &.T 3 T V.F 3 w * D 6 %.D 6 M.=.3 3 5 w @.A ..V z.%.5 5 V ( &.=.* . & g g w ( ~ 4 a.a.% % % ~ | Y k.y.@Xy.T H ",
"nXnXlXL ! A C C Y D | D z. .5 ( 6 ( ) Y 6 6 $.%.B 5 F &.( B K 5 T | 4 D %.l.| 4 k.3 & f.i.X V V D =.=.4 3 0 } =.B @.H A C C W ^.",
"nXfXdXq.B * % % B C A 3.| 5 D $.p.w * 5 B B L 4 D X.p.F B 3 5 5 K 5 V H  .0 = A / V =.p.& & w @.4.E 6 D  .=.~ B 5 A B B B ! 6XnX",
"nXdXm.@XB 3 3 * % C B K 3 Y / X.6 3 B 5 C C B K B A V 3 H @.%.o.B C B B = 4 | R T 2...6 6 $.l.o.C C K L A D * D @.$.` V 9.2X/.9.",
"nXzX>.C 5 5 * B 5 5 B 5 C 5 C * V X.5.k.=.D C 3 B 3 B I E | | F B * 3 5 3 C C 3 C K 5 C D T D 3 V T D A B B I E | | F W.4XQ d e.",
"VX|.w.8 * 3 3 * B 3 5 B % 5 3 B K A 6 V 5 5 3 * 3 3 B 5 5 3 B 5 * % * 3 5 5 B B B 5 B 5 B 5 B R 4.5.=.O.5 B B B B * * r.0.0.!.5X",
"wX.X8.s * % % % * 5 5 % * 3 3 B B B 5 3 5 3 X 3 5 B B 5 * % 3 5 X * 3 3 5 3 * B 5 5 5 3 3 3 C B B 3 B C B B 5 5 * % * * % p zXnX",
"nX4XE.; * * X % % 5 5 X 3 3 5 5 3 % * % 3 3 * 3 3 5 3 * * * % * * % % * % % % 3 5 3 % 3 * 5 B B B 5 3 * 5 5 3 3 * % - ; Q.zXnXnX",
"SXnXnX0Xz a % * % * 3 * % 3 3 % . % X X * * X % * X . . X . % % % * * * % % % % 5 * % 5 3 5 5 3 * % % 3 = X X % % % - E.vXnXnXnX",
"nXnXaX~.aXa * % < % % % % % . . . . . . % % % % . . . . X - X X ; & % . X % 7 X 3 * % % 3 * X % % % % . + < y % X X Q.1XvXnXnXnX",
"nXnXaXvXE.i 1 - # % X - % X . . . . . . X X X . O . . - - X % X X @ O X u % o X % % * ; - X . X % X u u . .X@ 1XOXt oXvXnXnXnXnX",
"nXnXnXvXhXn x u t z .Xj $ . . X . . . * u . . O t . . + c % ; z c - < v c   % i % ; a - < + . v O u + u c n .Xu vXzXhXvXnXnXnXnX",
"nXnXnXnXnXeXnXzXzXhXv m O . & O $ @ . ; t u u j @ . t t X v   0.v l v     X e.E.k X v R..X3X@ @ x OXm u N jX3X3XXXnXnXnXnXnXnXnX",
"nXnXnXnXnXnXnXnXeXoXsXjXOXb + 3XoXX p m v OXe.b l eXoXt .XQ.  eXz vX7X  j _.zXN XXn oXnXjXwXy oXnXt 9Xn tXnXnXnXnXnXnXnXnXnXnXnX",
"nXnXnXnXnXnXnXnXnXnXnXnXjXy 3XnXoX% eX7Xe.n hXv zXnXnXwXQ.nXkXnXwXvXnXwXzXnXnXtX.XzX7XnXnXwXzXSXnXoX1XzXsXnXnXnXnXnXnXnXnXnXnXnX"
};
